<?xml version="1.0" encoding="UTF-8"?>
<svg id="Capa_1" xmlns="http://www.w3.org/2000/svg" version="1.1" viewBox="0 0 142.08 142.08">
  <!-- Generator: Adobe Illustrator 29.1.0, SVG Export Plug-In . SVG Version: 2.1.0 Build 142)  -->
  <defs>
    <style>
      .st0 {
        fill: #b2d02e;
      }

      .st1 {
        fill: #ccde56;
      }

      .st2 {
        fill: #789559;
      }

      .st3 {
        fill: #c3de75;
      }

      .st4 {
        fill: #bbd64b;
      }

      .st5 {
        fill: #c5d750;
      }

      .st6 {
        fill: #edfade;
      }

      .st7 {
        fill: #b4cd5a;
      }

      .st8 {
        fill: #eaf0dd;
      }

      .st9 {
        fill: #b9d436;
      }

      .st10 {
        fill: #a5ce42;
      }

      .st11 {
        fill: #acc559;
      }

      .st12 {
        fill: #c9df99;
      }

      .st13 {
        fill: #edf8e3;
      }

      .st14 {
        fill: #c4d948;
      }

      .st15 {
        fill: #99cd59;
      }

      .st16 {
        fill: #f0fae5;
      }

      .st17 {
        fill: #8d8f90;
      }

      .st18 {
        fill: #b0d129;
      }

      .st19 {
        fill: #ebf9d5;
      }

      .st20 {
        fill: #c8cacc;
      }

      .st21 {
        fill: #6f7172;
      }

      .st22 {
        fill: #899275;
      }

      .st23 {
        fill: #9ac834;
      }

      .st24 {
        fill: #9bc93a;
      }

      .st25 {
        fill: #aecc3c;
      }

      .st26 {
        fill: #8abe5e;
      }

      .st27 {
        fill: #cae29c;
      }

      .st28 {
        fill: #a8c172;
      }

      .st29 {
        fill: #96cd2d;
      }

      .st30 {
        fill: #f3f5f4;
      }

      .st31 {
        fill: #828475;
      }

      .st32 {
        fill: #a5cc49;
      }

      .st33 {
        fill: #dadbdd;
      }

      .st34 {
        fill: #77797a;
      }

      .st35 {
        fill: #cae272;
      }

      .st36 {
        fill: #fcfcfc;
      }

      .st37 {
        fill: #a2a3a3;
      }

      .st38 {
        fill: #b6b8b7;
      }

      .st39 {
        fill: #b5cc55;
      }

      .st40 {
        fill: #a3cb3e;
      }

      .st41 {
        fill: #838486;
      }

      .st42 {
        fill: #ecf8cd;
      }

      .st43 {
        fill: #b2d293;
      }

      .st44 {
        fill: #a5ce35;
      }

      .st45 {
        fill: #c7dd7c;
      }

      .st46 {
        fill: #989799;
      }

      .st47 {
        fill: #f6f6f6;
      }

      .st48 {
        fill: #919394;
      }

      .st49 {
        fill: #87898b;
      }

      .st50 {
        fill: #7bbd47;
      }

      .st51 {
        fill: #c9dc58;
      }

      .st52 {
        fill: #7d7e81;
      }

      .st53 {
        fill: #bed049;
      }

      .st54 {
        fill: #b7d965;
      }

      .st55 {
        fill: #c0c1c3;
      }

      .st56 {
        fill: #848498;
      }

      .st57 {
        fill: #a6c555;
      }

      .st58 {
        fill: #89bd56;
      }

      .st59 {
        fill: #97ca51;
      }

      .st60 {
        fill: #bed63b;
      }

      .st61 {
        fill: #f8f9f9;
      }

      .st62 {
        fill: #b6c94f;
      }

      .st63 {
        fill: #ecf3bc;
      }

      .st64 {
        fill: #badb85;
      }

      .st65 {
        fill: #929496;
      }

      .st66 {
        fill: #f3f6bf;
      }

      .st67 {
        fill: #edf6e4;
      }

      .st68 {
        fill: #f3f5df;
      }

      .st69 {
        fill: #7b836b;
      }

      .st70 {
        fill: #7a8e55;
      }

      .st71 {
        fill: #adca4e;
      }

      .st72 {
        fill: #9b9c9f;
      }

      .st73 {
        fill: #a6cb59;
      }

      .st74 {
        fill: #96c24a;
      }

      .st75 {
        fill: #8ecf43;
      }

      .st76 {
        fill: #eaf4b1;
      }

      .st77 {
        fill: #afcf34;
      }

      .st78 {
        fill: #8fc159;
      }

      .st79 {
        fill: #75806c;
      }

      .st80 {
        fill: #909192;
      }

      .st81 {
        fill: #a9c656;
      }

      .st82 {
        fill: #9dc54d;
      }

      .st83 {
        fill: #eef2ed;
      }

      .st84 {
        fill: #a6d277;
      }

      .st85 {
        fill: #93c74a;
      }

      .st86 {
        fill: #777b6b;
      }

      .st87 {
        fill: #f4f7d8;
      }

      .st88 {
        fill: #f3f5e4;
      }

      .st89 {
        fill: #e9fbdb;
      }

      .st90 {
        fill: #d1d2d4;
      }

      .st91 {
        fill: #f1f8d2;
      }

      .st92 {
        fill: #767784;
      }

      .st93 {
        fill: #ddf1bb;
      }

      .st94 {
        fill: #f5fbea;
      }

      .st95 {
        fill: #939597;
      }

      .st96 {
        fill: #c5db55;
      }

      .st97 {
        fill: #8ba263;
      }

      .st98 {
        fill: #d8e28c;
      }

      .st99 {
        fill: #7e7f8b;
      }

      .st100 {
        fill: #e8f7d3;
      }

      .st101 {
        fill: #87888d;
      }

      .st102 {
        fill: #86986e;
      }

      .st103 {
        fill: #fbfbfb;
      }

      .st104 {
        fill: #c1d96c;
      }

      .st105 {
        fill: #f3f8df;
      }

      .st106 {
        fill: #7d8474;
      }

      .st107 {
        fill: #f9f9f9;
      }

      .st108 {
        fill: #979698;
      }

      .st109 {
        fill: #fefee9;
      }

      .st110 {
        fill: #d6e27c;
      }

      .st111 {
        fill: #8a8c8f;
      }

      .st112 {
        fill: #d5e059;
      }

      .st113 {
        fill: #839454;
      }

      .st114 {
        fill: #e9f6d5;
      }

      .st115 {
        fill: #abe086;
      }

      .st116 {
        fill: #ecf9c4;
      }

      .st117 {
        fill: #ebfbe1;
      }

      .st118 {
        fill: #a2cc37;
      }

      .st119 {
        fill: #f1f4da;
      }

      .st120 {
        fill: #c3d439;
      }

      .st121 {
        fill: #b4d672;
      }

      .st122 {
        fill: #e6f3c9;
      }

      .st123 {
        fill: #b7d43d;
      }

      .st124 {
        fill: #999a9e;
      }

      .st125 {
        fill: #8f9191;
      }

      .st126 {
        fill: #b0d260;
      }

      .st127 {
        fill: #a9cf52;
      }

      .st128 {
        fill: #808282;
      }

      .st129 {
        fill: #d4d5d7;
      }

      .st130 {
        fill: #d0e063;
      }

      .st131 {
        fill: #add142;
      }

      .st132 {
        fill: #7d8271;
      }

      .st133 {
        fill: #8aba5c;
      }

      .st134 {
        fill: #b4d42a;
      }

      .st135 {
        fill: #95ca48;
      }

      .st136 {
        fill: #80b75b;
      }

      .st137 {
        fill: #e0e9b1;
      }

      .st138 {
        fill: #9cc747;
      }

      .st139 {
        fill: #ccde5b;
      }

      .st140 {
        fill: #e0f2c1;
      }

      .st141 {
        fill: #c3d838;
      }

      .st142 {
        fill: #a6a8a9;
      }

      .st143 {
        fill: #f1f1f1;
      }

      .st144 {
        fill: #8a8c8c;
      }

      .st145 {
        fill: #c6d55d;
      }

      .st146 {
        fill: #cbe081;
      }

      .st147 {
        fill: #f3fbd7;
      }

      .st148 {
        fill: #f1fbe2;
      }

      .st149 {
        fill: #9ad45c;
      }

      .st150 {
        fill: #9dc45c;
      }

      .st151 {
        fill: #b4d458;
      }

      .st152 {
        fill: #fcfef5;
      }

      .st153 {
        fill: #cccecf;
      }

      .st154 {
        fill: #a8c84e;
      }

      .st155 {
        fill: #7b8570;
      }

      .st156 {
        fill: #7a7a7e;
      }

      .st157 {
        fill: #bfd34a;
      }

      .st158 {
        fill: #8abc55;
      }

      .st159 {
        fill: #90c536;
      }

      .st160 {
        fill: #c5cf79;
      }

      .st161 {
        fill: #e1f9d7;
      }

      .st162 {
        fill: #91bf55;
      }

      .st163 {
        fill: #edf2cc;
      }

      .st164 {
        fill: #eff6e2;
      }

      .st165 {
        fill: #c2c3c5;
      }

      .st166 {
        fill: #96ca3c;
      }

      .st167 {
        fill: #b5d241;
      }

      .st168 {
        fill: #cde360;
      }

      .st169 {
        fill: #eff2f8;
      }

      .st170 {
        fill: #bed343;
      }

      .st171 {
        fill: #a3d16e;
      }

      .st172 {
        fill: #96c749;
      }

      .st173 {
        fill: #9bc156;
      }

      .st174 {
        fill: #f3f8db;
      }

      .st175 {
        fill: #bdbfc1;
      }

      .st176 {
        fill: #a4bd6c;
      }

      .st177 {
        fill: #898b8c;
      }

      .st178 {
        fill: #f0f7d5;
      }

      .st179 {
        fill: #f8fced;
      }

      .st180 {
        fill: #d0dc4a;
      }

      .st181 {
        fill: #787d79;
      }

      .st182 {
        fill: #e7f1b0;
      }

      .st183 {
        fill: #bed661;
      }

      .st184 {
        fill: #aed781;
      }

      .st185 {
        fill: #999b9d;
      }

      .st186 {
        fill: #96989a;
      }

      .st187 {
        fill: #737576;
      }

      .st188 {
        fill: #95c643;
      }

      .st189 {
        fill: #b0b2b2;
      }

      .st190 {
        fill: #d4e36e;
      }

      .st191 {
        fill: #d2e266;
      }

      .st192 {
        fill: #bbbdbe;
      }

      .st193 {
        fill: #b8d42c;
      }

      .st194 {
        fill: #bbd529;
      }

      .st195 {
        fill: #8e9093;
      }

      .st196 {
        fill: #999;
      }

      .st197 {
        fill: #f2f4eb;
      }

      .st198 {
        fill: #97cb4f;
      }

      .st199 {
        fill: #f3f9e3;
      }

      .st200 {
        fill: #aace35;
      }

      .st201 {
        fill: #acd348;
      }

      .st202 {
        fill: #d0d0d0;
      }

      .st203 {
        fill: #e1f3c8;
      }

      .st204 {
        fill: #accc41;
      }

      .st205 {
        fill: #b4d135;
      }

      .st206 {
        fill: #7a7c7b;
      }

      .st207 {
        fill: #a2c65e;
      }

      .st208 {
        fill: #b0d03c;
      }

      .st209 {
        fill: #8f9092;
      }

      .st210 {
        fill: #f1f3f4;
      }

      .st211 {
        fill: #91c73d;
      }

      .st212 {
        fill: #959798;
      }

      .st213 {
        fill: #858784;
      }

      .st214 {
        fill: #969799;
      }

      .st215 {
        fill: #b6d03e;
      }

      .st216 {
        fill: #f9f8f4;
      }

      .st217 {
        fill: #e5f9d4;
      }

      .st218 {
        fill: #c4c6c8;
      }

      .st219 {
        fill: #accd37;
      }

      .st220 {
        fill: #eff9db;
      }

      .st221 {
        fill: #a2c459;
      }

      .st222 {
        fill: #9d9ca4;
      }

      .st223 {
        fill: #b6d547;
      }

      .st224 {
        fill: #8b8d8f;
      }

      .st225 {
        fill: #91c742;
      }

      .st226 {
        fill: #c2d355;
      }

      .st227 {
        fill: #f4fbe7;
      }

      .st228 {
        fill: #a1d672;
      }

      .st229 {
        fill: #f6f9ed;
      }

      .st230 {
        fill: #b2d036;
      }

      .st231 {
        fill: #e0ea91;
      }

      .st232 {
        fill: #cdde65;
      }

      .st233 {
        fill: #c0e37b;
      }

      .st234 {
        fill: #ecf6d9;
      }

      .st235 {
        fill: #a1bf57;
      }

      .st236 {
        fill: #9bcc29;
      }

      .st237 {
        fill: #f3fce3;
      }

      .st238 {
        fill: #9dce67;
      }

      .st239 {
        fill: #dae781;
      }

      .st240 {
        fill: #9cc940;
      }

      .st241 {
        fill: #b6b6b6;
      }

      .st242 {
        fill: #acd127;
      }

      .st243 {
        fill: #f8f8f9;
      }

      .st244 {
        fill: #829655;
      }

      .st245 {
        fill: #aacd39;
      }

      .st246 {
        fill: #f6f7f2;
      }

      .st247 {
        fill: #fefefe;
      }

      .st248 {
        fill: #9fc250;
      }

      .st249 {
        fill: #f7f7fe;
      }

      .st250 {
        fill: #c6db4f;
      }

      .st251 {
        fill: #c2d841;
      }

      .st252 {
        fill: #f2f4f3;
      }

      .st253 {
        fill: #eff4d7;
      }

      .st254 {
        fill: #fafafa;
      }

      .st255 {
        fill: #c4db5b;
      }

      .st256 {
        fill: #8fc72f;
      }

      .st257 {
        fill: #7f818e;
      }

      .st258 {
        fill: #bfc0c2;
      }

      .st259 {
        fill: #d2d2d2;
      }

      .st260 {
        fill: #b8d430;
      }

      .st261 {
        fill: #b3ce44;
      }

      .st262 {
        fill: #f8f8f8;
      }

      .st263 {
        fill: #93cc33;
      }

      .st264 {
        fill: #95cc2b;
      }

      .st265 {
        fill: #aecf35;
      }

      .st266 {
        fill: #95c24e;
      }

      .st267 {
        fill: #f7faea;
      }

      .st268 {
        fill: #f5f7f7;
      }

      .st269 {
        fill: #f0f7c7;
      }

      .st270 {
        fill: #909193;
      }

      .st271 {
        fill: #c6de7e;
      }

      .st272 {
        fill: #afcc4e;
      }

      .st273 {
        fill: #a6ba55;
      }

      .st274 {
        fill: #a7c941;
      }

      .st275 {
        fill: #82c53e;
      }

      .st276 {
        fill: #f6f7f7;
      }

      .st277 {
        fill: #f7f7f7;
      }

      .st278 {
        fill: #c2d867;
      }

      .st279 {
        fill: #f2f6ef;
      }

      .st280 {
        fill: #bebebe;
      }

      .st281 {
        fill: #fdfdfd;
      }

      .st282 {
        fill: #7ab542;
      }

      .st283 {
        fill: #7b8953;
      }

      .st284 {
        fill: #78798c;
      }

      .st285 {
        fill: #7f8b7b;
      }

      .st286 {
        fill: #dcdddf;
      }

      .st287 {
        fill: #d2e171;
      }

      .st288 {
        fill: #edf4dd;
      }

      .st289 {
        fill: #748a54;
      }

      .st290 {
        fill: #bdd05e;
      }

      .st291 {
        fill: #bbd72b;
      }

      .st292 {
        fill: #d3e16f;
      }

      .st293 {
        fill: #f4f6f5;
      }

      .st294 {
        fill: #bdd23b;
      }

      .st295 {
        fill: #9ec84b;
      }
    </style>
  </defs>
  <path class="st202" d="M93.7,15.87c.07.14-.05.53,0,.75-1.11.05-2.61-.17-3.75-.38-.33-.11-.32-.23,0-.38.12.02.25-.01.38,0,1.09-.26,2.29-.37,3.38,0h-.01Z"/>
  <path class="st277" d="M93.7,15.87c-1.1-.03-2.3.1-3.38,0,.63-.64,3.07-.61,3.38,0Z"/>
  <path class="st143" d="M8.2,34.61c-.07.17.11.66,0,.74-.23.17-1.73-.16-2.39.07-.51.17-.47.98-.87,1.08-.68.16-1.77-.27-2.39.15-.66.44.03,1.73-.72,2.46-.95-4.17,3.64-3.67,6.38-4.5h0Z"/>
  <path class="st143" d="M19.82,33.49c.85.68-3.05,2.23-2.25,0h2.25Z"/>
  <path class="st10" d="M61.45,19.24c.56-.64,1.67-.59,2.25,0,.69.14.94.39.75.75.67,1.33,1.93,4.18.75,5.25.71,1.09.39,5.51-1.5,5.25-1.27-.51-.87-1.47,0-2.25-.98-.23-.96-.46,0-.75.56-2.32.31-4.07-.75-5.25-.61.82-2.31.21-3-.38-.69.92-2.05,2.66-3,1.12-.66-.52.79-1.83,1.5-2.25.13-.82.88-1.32,2.25-1.5.25-.01.5,0,.75,0h0Z"/>
  <path class="st163" d="M83.95,19.61c.84.62.63,2.75,0,3.38,1,.14.54.99,0,1.5-.12,1-.46.95-.75,0-.42-.07-.42-.32,0-.75-1.06-.6-1.08-1.67,0-2.25.07-.53-.18-1.03-.75-1.5l-.38-.75c.43-.04,1.22-.1,1.5-.38.08.25.33.52.38.75Z"/>
  <path class="st140" d="M65.95,19.24c.06.04-.34.19.75.75,1,.82,2.41,2.77,1.5,3.75-.25.68-.5.56-.75-.38-.63-.19-1.09-.76-1.38-1.71-.71-.53-1.24-1.08-1.62-1.66-.19-.1-.74-.54-.75-.75.49.02,2.09-.1,2.25,0Z"/>
  <path class="st160" d="M83.2,21.49c-.92-.17-.21-.27-.22-.23-.18.95-1.41,1.43-1.65.23-.55-.39-.18-.57.38-.75.13-.25.25-.5.38-.75.12-.02.25.02.38,0,.21-.03.85-.72,1.12.2.21.72-.37,1.2-.37,1.3h-.02Z"/>
  <path class="st114" d="M61.45,19.24c-.31-1.36,1.69-.56,2.62-.75.17.1-.38.61-.37.75-.74-.03-1.51-.03-2.25,0Z"/>
  <path class="st122" d="M60.7,19.24c-.76.81-1.42.51-2.25,1.5-.44.43-.69.43-.75,0,.02-.13-.4-.59-.38-.75,1.22.53,1.53-.67,1.77-.74.47-.13,1.09.02,1.6,0h0Z"/>
  <path class="st214" d="M97.07,37.99c-1.37-1.4.65-1.99,2.01-2.11.54-.24.62-9.58,0-10.38-1.69-1.06-2.22-2.83-1.59-5.33-1.15-1.94.25-2.27,1.82-1.31,1.17.91,2.27,2.01,3.38,3,.32.29.73.75,1.12,1.12.83.38,1.48,1.05,1.88,1.88.4.39.59.68,1.12,1.12.57.3,1.26.81,1.12,1.5.8.52.48,1.03-.41,1.31.29,1.04.17,1.67-.34,1.88.29.08.74.21.75.44.09,1.52.18,11.98-.25,12.44-.12.13-.3.2-.5.25,1.87-.38,1.23,5.03-.75,3.19-.7.91-2.08-.18-1.5-1.12,1.78-.8,1.43-2.85-.26-1.35l-.87-.15c-.93.7-2.25-.41-1.88-1.5-1.1-1.45-2.35-2.83-3.75-4.12-.66,1.61-2.43-.29-.75-.75q.89-.25,0,0c-.12.32-.25.32-.38,0h.03Z"/>
  <path class="st124" d="M89.95,16.61c.73.32,1.5.17,2.25,0,.95.22,1.83.22,2.62,0,.84.17,1.86.37,2.62.75.49.24,1.37,1.1,1.88,1.5h-1.5c-.53.88,2.04,1.73,2.25,2.62l-2.25-.93c.58,1.02.16,2.43.44,3.31.23.74,1.55.65,1.81,1.94.23,1.16.22,8.55,0,9.73-.4,2.13-2.75.25-2.99,2.45l-.86.36c-2.26-2.66-5.63-2.31-8.42-.71l-.84-.4c-.39.33-.72.31-1.12,0-2.55.04.6-3.49,2.22-3.65l3.17-.46c-.12-4.71,0-9.43.33-14.14-4.01.46-5.04-.33-3.1-2.39.21-.05.51.04.75,0s.55-.36.75-.38c.32.12.32.25,0,.38v.02Z"/>
  <path class="st72" d="M88.45,16.61c.7.41-.94,1.75.19,1.87.36.04,3.29-.96,3.57.25.89,3.81-1.5,10.4-.11,14.58-.25,1.3-5.6.15-5.53,2.42,1.22-.9,2.87-1.33,4.38-1.37.36,0,1.31.05,1.24.62-2.11-.27-3.99.6-5.83,1.5l-.54-.74c0,.43-.35.79-.29,1.22.02.15.24.19.28.27.65-.05.8.26.38.75.29.98-.03,1.06-.75.38-.13.32-.25.32-.38,0l-.2-.27c-.78,1.4-1.69,1.53-.92-.1-.39-.24-.46-1.35-.47-1.94s.83-5.24,1.06-5.4c.15-.1.33-.14.53-.17.11-.33.23-.32.38,0,.32-.58.28-1.28,0-1.88.03-1.88-.25-3.51-.84-4.91.28-1.07.43-2.18.46-3.34-.51.43-.72.22-.38-.38-.65-2.31,2-2.94,3.75-3.38l.02.02Z"/>
  <path class="st197" d="M84.7,19.99c.12.11.33.17.38.38l-.16.82c.14,1.13.13,3.14-.96,1.81.17-1.34.29-1.92,0-3.38.21.15.58.22.75.38h0Z"/>
  <path class="st46" d="M93.7,16.61c.36.05.8-.07,1.12,0v1.12c-.78-.49-1.72-.99-2.62-1.12-.83.34-1.58.34-2.25,0-.05-.07.03-.25,0-.38,1.55-.12,2.42.2,3.75.38Z"/>
  <path class="st17" d="M129.7,49.24c1.92,1.92,4.01,3.78,6,5.62.96,1.37,1.99,2.19,3,3.75.36,2.09-.02,2.84-1.12,2.25-.25-.09-.24-.22,0-.38-.6.03-.98-.59-1.12-1.88-.93.52-1.58-.19-1.12-1.12-1.17.24-1.95-.79-1.5-1.88-.53.29-1.02.08-1.46-.62-.07,6.68-.06,13.29.04,19.85l-.46.27c.83.26.76.32,0,.75.53.3,1.03.68,1.5,1.12-.16.16-.22.59-.38.75-2.26,2.32-4.84,4.45-7.12,6.75-1.5,1.21-2.77-.73-1.01-1.75-.81-2.27-.97-5.82.44-7.86-.7-.66-.58-1.62.37-2.91l-.17-.98c-.4.35-.54.14-.38-.38-.43-.23-.52-.88,0-1.12.62-.91,1.53-.06,1.16.81.41,1.62,1.32,1.54,1.09-.06.42,3.4-1.79-.12-1.09-.78.55-.53,1.29-.22,1.09.78-1.1-.86-.43-1.27.68-1.62.28-4.43.24-8.92-.06-13.35-.72-.71-1.12-1.39-1.06-2.46.03-.5,1-2.77,1.28-3.24.34-.56.83-.74,1.4-.34v.03Z"/>
  <path class="st144" d="M138.7,58.61c.27.42.97,1.12,1.12,1.5,1.21-.1,1.58,2.94.96,3.61l.16.89c.54.15.49.43,0,.75-.71.42-.26,1.58-.38,2.25.67.36.37,1.4-.38,1.5-.02.09-.3.39-.38.75-.73,1.53-1.61,2.26-2.62,3.38-.88.56-1.54.8-1.88-.38-.33-.11-.32-.23,0-.38-.36-.89.23-1.4,1.12-1.12.05-.89.3-1.39.75-1.5.54-1.02.95-2.71.81-3.51l-.2-4.33c-.48-.53-.56-.92-.23-1.16,1.45-.79-.44-2.54,1.12-2.25h.03Z"/>
  <path class="st125" d="M135.33,72.87c.43-.02,1.43.2,1.88.38-1.21,1.34-2.51,2.47-3.75,3.75-.54-.27-1.04-.65-1.5-1.12-.24-.83,0-.7,0-.75.27-1.01,1.38-1.37,2.25-1.12-1.16-.9.33-2.49,1.12-1.12v-.02Z"/>
  <path class="st209" d="M129.7,49.24l-1.12,1.12,1.12.37c-1.51.3-2.27,1.63-1.8,3.12.15.47.72.71.85,1.03.36.86.45,13.68.03,14.26-.19.26-.84.27-1.2.49-.21.13-.09.6-.12.61-.04.02-.7-.46-.75-.38-.09.69,0,1.1.56,1.5l.19-1.12.38,1.87,1.12-1.87c-.19,1.95,1.86,3.29-1.3,3.37-.76-.91-1.58-3.84-2.45-4.12-.12.3-.25.3-.38,0-1.44-1.28-1.91-3.16-2.25-4.88-1.05.1-1.45-.58-1.58-1.54-.92-.48-1.66-1.18-1.04-2.21-1.55-1.5-1.16-3.22.82-4.01l-.1-7.15c-.28-2.34.22-4.04,1.48-5.1-1.74-1.22-1.04-3.25.8-2.12,2.22,2.26,4.51,4.51,6.75,6.75h-.01Z"/>
  <path class="st48" d="M114.7,34.24c.45.48,1.06,1.51,1.5,1.88-.07.68.43,1.06,1.5,1.12.13.22,1.22.82,1.5,1.12.54.19.95.58,1.12,1.12.88.93,1.73,2.09,2.62,3-2.34.85-.74.89-.38,1.38,1.08,1.47-.64,1.38-.76,1.88-.83,3.49-.05,8.25-.33,11.96,0,.1,1.4.25.72.91-.59.56-1.53-.32-1.13-1.13-2.05.38.2,1.69-1.88,1.69.24.46.51,1.29.75,1.68-2.52-1.11-5.47-3.9-7.34-6.08-.53-.61-.56-1.05.22-1.42-.68-1.79-.67-3.86.02-6.21-.12-3.54-.13-7.08-.02-10.62.03-2.47.65-3.24,1.88-2.3v.02Z"/>
  <path class="st95" d="M117.7,36.87c.02.14-.04.3,0,.38-.29.04-1.8,1.04-1.87,1.13-.65.91.9.52.74,1.11l-1.12.38c.07-1.24-.4-2.86.75-3.75.18.15,1.16.37,1.5.75h0Z"/>
  <path class="st252" d="M120.33,39.49c-.34-.36-.72-.69-1.12-1.12.76,0,1.12.38,1.12,1.12Z"/>
  <path class="st165" d="M22.45,38.74c2.23-1.54,5.19-2.54,2.63,1.47.08,3.77.08,7.54,0,11.31-.6.63-.6,1,0,1.1l-.27,1.34c-2.43,2.45-4.85,4.92-7.04,7.59-.54-.1-.99.03-1.31.45.36,1.02.03,1.74-1.12,1.5.46.57.25.77-.38.38.08,1.05-.17,1.55-.75,1.5l.47.78c-.54,1.25-1.02,2.54-1.21,3.89.33-1.32,1.04-3.8,2.61-3.17.61.18,1.19.43,1.66.86,1.44,1.33,7.76,7.94,8.2,9.05.12.31.2.64.26.97.65,1-2.17,1.77-2.25.75l.75.43v7.85l-.75.54c1.57.74.41,3.07-.75,3.94-1.32,0-6.08-3.83-6.55-4.76-.2-.4-.28-.8-.2-1.24-.69.33-.86-.02-.75-.75-2.87-1.23-5.55-4.23-6.75-7.12-.63-.71-.47-1.51.46-2.4-1.19-.57-1.34-1.69-.45-3.36.04-5.48-.08-10.95-.36-16.44-.92-.26-1.3-.73-1.15-1.43,3.66-3.73,9.88-11.5,13.88-14.25.3-.21.85-.68,1.12-.75v-.03Z"/>
  <path class="st218" d="M7.45,53.74l1.9.97c-.15,5.6.78,11.26.37,16.86-.06.83-1.64,3.35.35,2.42.57,1.83-.99,1.81-1.12,3.38-1.03.47-1.79-.4-2.11-1.34-1-.21-1.59-.49-1.26-1.66-1.14.33-1.52-.04-1.12-1.12-.31-.34-.72-.68-1.12-1.12-3.4-3.78-4.56-8.26-1.78-12.84.6-.99,1.15-1.13,1.78-1.78,1.24-1.28,2.98-2.58,4.12-3.75v-.02Z"/>
  <path class="st258" d="M34.45,43.24l.09.9-8.52,8.58-.95-.11c-.65.62-1.53.32-1.51-.56,0-.27.69.04.79-.72.44-3.31-.37-7.83-.01-11.25.1-.94,1.46-1.76,1.1-2.09s-1.56.79-2.07.96c-.28.09-.78-.25-.93-.21,2.73-3.46,6.09-6.45,9.38-9.38,1.94-.8,3.69,3.49,1.88,4.31l.75.42v6.93l-.75.53c.46.32.71.88.75,1.69h0Z"/>
  <path class="st175" d="M39.33,25.61l1.88.38c.27.04.61.4,1.12.38l.82.42c-.73,4.1-.99,8.27-.78,12.51-.81.51-.64,1.45-.26,2.28l-.53.54-.66.61c-2.06-.67-3.89-.8-5.57.75l-.9-.24c-1.89-.17-.75-1.21-.75-1.69v-7.88c-.05-2.55.09-2.62-1.88-4.31.87-.78,1.88-2.32,3.38-3,.24-.11.84-.3,1.12-.38.69-.29,1.44-.41,2.25-.38.25-.02.5.01.75,0h.01Z"/>
  <path class="st226" d="M80.95,22.24c.99.14.93.42,0,.75-.15.51-.53,1.01-1.12,1.5.31,1.03-.71,3.28-1.88,2.62-.3,1.17-.75,2.81-2.25,2.25-.2,1.28-.7,1.66-1.5,1.12-.11.33-.23.33-.38,0-.71.81-1.29.15-.75-.75-.62-.42-.29-.62.38-.75.07-.84.62-1.68,1.5-1.5.38-1.31.74-2.34,2.25-2.25.25-.25.49-.5.75-.75.6-1.23,1.47-2.14,2.6-2.71l.4.46h0Z"/>
  <path class="st83" d="M66.7,19.99c.91.47,1.57.32,1.51,1.88l.74-.38v3.75l.75-.75v4.31l-.74-1.31c.19,1.13-.66,2.85.75,3.19-1.34.23-1.61,1.31-2.38,1.93-.22.18-.56.08-.62.13-.41.03-.41-.22,0-.75.6-1.62,1.16-3.26,1.68-4.93-.49-1.3-.55-2.41-.18-3.32-.31-1.7-.6-2.3-1.5-3.75h0Z"/>
  <path class="st157" d="M73.83,30.49c.14,1-.72,2.93-1.88,2.25.27,1.2-.3,1.78-1.5,1.5.46,1.33-1.29,1.83-1.5.38-.23.71-.56.71-.75,0-.33-.11-.32-.23,0-.38-.08-.43.28-.89.75-.75.3-.35.34-.45.75-.75.02-.73.53-1.3,1.12-.75.61-.55,1.11-1.17,1.5-1.88.11-.33.23-.33.38,0l.38-.38.75.75h0Z"/>
  <path class="st119" d="M81.7,20.74c-.13.24-.27.5-.38.75.61.72.56.85-.38.75-1.35,0-1.71,1.55-2.35,2.16-.2.18-.6.05-.65.09-.27-1.46,2.29-4.02,3.75-3.75h.01Z"/>
  <path class="st88" d="M72.7,28.24c.16.34-.09.59-.75.75,1,.17,1.25.55.75,1.12-.07.06-.31-.06-.38,0-.35.71-.85,1.33-1.5,1.88-.37.26-.76.48-1.12.75-.7-1.43,1.34-1.98,1.48-2.52.36-1.36-.87-2.31,1.52-1.98Z"/>
  <path class="st68" d="M74.95,26.74c-.02.25,0,.5,0,.75-.5.49-.99,1-1.5,1.5-.29.49-.79.49-1.5,0,0-.31.5-.58.75-.75.38-.27,1.35.1.75-1.5h1.5Z"/>
  <path class="st221" d="M66.7,31.99c.02.25,0,.5,0,.75-.14.11-.25.28-.38.38.43.96-.17,1.6-1.12,1.12-.14.96-.42.91-.75,0-.69-1.04,1.14-2.81,2.25-2.25Z"/>
  <path class="st83" d="M67.07,34.24c.56.37.24.75-.38.75-.52.87-1.13.65-1.12-.38-.58.51-.8.27-.38-.38.36-.39.7-.8,1.12-1.12l.75,1.12h.01Z"/>
  <path class="st164" d="M68.2,34.24v.38c.49.86-.74,1.88-1.5,1.12-.73-.22-.74-.56,0-.75,0-.04.35-.72.38-.75.09-.13.56-.22.75-.38.52-.48.72-.27.38.38h-.01Z"/>
  <path class="st83" d="M68.95,33.49c-.22.26-.31.64-.75.75l-.38-.38c.34-.28.29-1.07,1.12-.38h.01Z"/>
  <path class="st111" d="M52.45,34.99c1.13-.31,1.67.51,1.12,1.5.53,2.29.52,4.38.3,6.77.67.88.96,2.38-.3,2.6,1,1.02,1,1.9,0,2.62.22,1.04-1.7,3.08-2.62,2.25-1.43.32-2.61-1.73-2.62-3-1.25.14-1.94-2.11-1.12-3-.44-1.24-.07-1.54,1.19-1.16l.22-4.32-.5-.98c.55-2.11.29-3.81-.79-5.1-.9-1.62-.94-2.52-.13-2.68,1.83,1.02,3.73,2.98,5.25,4.5Z"/>
  <path class="st195" d="M47.2,30.49c.01.13-.43.4-.19,1.09.33.94,1.5,1.42,1.6,1.62.25.48-.04,1.05.09,1.53.09.33.74.26.75.48.04.6-.68,1.91-.66,2.68.02.52.54.82.55,1.34.03.76-.47,1.65-.29,2.72.15.83,1.76,1.09,1.14,1.68-.22.2-1.44-.51-1.13.75l1.13.19-.76,1.3c-.27,0-2.21-3.1-2.24-1.12-1.41-.32-2.52-3.26-1.88-4.5.03-.37-.05-.77,0-1.12-.21-1.21-.16-2.3.83-3.1l-.17-3.63c-1.2-1.42-.47-3.56,1.22-2.27.03.11,0,.25,0,.38v-.02Z"/>
  <path class="st65" d="M44.95,27.49c.34.91,2.06,1.82,2.25,2.62-2.21.56-.64,1.24-.49,2.12.03.2.15,3.81.12,4.01-.02.17-1.29,1.33-1.51,2.87-.86-1.31-1.9-11.17-1.5-11.63.09-.1.85.09,1.13,0h0Z"/>
  <path class="st67" d="M55.45,22.99l.34.45c-.73,1.71-1.35,3.43-1.84,5.17.51.34.52.79,0,1.12l-.75,2.62c-.03-3.15-.3-5.61.75-8.62.3-.88.66-.94.75-1.12.34-.8.87-.39.75.38Z"/>
  <path class="st67" d="M54.7,32.74c.25.4.25.65,0,.75-.25.22-.39.75-.75.75v-3.75c.11-.33.23-.32.38,0,.6.46,1.17,1.77.38,2.25h0Z"/>
  <path class="st143" d="M41.95,24.87c.09.65-.85.35-1.31.37-1.06.04-2.13-.03-3.19,0-.09-.65.85-.35,1.31-.37,1.06-.04,2.13.03,3.19,0Z"/>
  <path class="st81" d="M54.7,30.49c-.11.33-.23.32-.38,0h-.38v-.75c.01-.37-.03-.75,0-1.12.24-.81.49-.93.75-.38.51.41.22,1.6,0,2.25h0Z"/>
  <path class="st143" d="M43.45,25.99c.45-.11.9-.54,1.5-.37l-.37.75c-.32-.1-.9.15-1.12-.38h0Z"/>
  <path class="st143" d="M38.57,25.61c-.17.01-2.11.34-2.25.38.42-.66,1.54-.32,2.25-.38Z"/>
  <path class="st143" d="M45.7,27.11c-.14-.1-.25-.29-.38-.38-.3-1.38,1.22-.48.38.38Z"/>
  <path class="st143" d="M43.82,24.49v.75c-.55.12-.78-.17-1.12-.56l1.12-.18h0Z"/>
  <path class="st143" d="M41.2,25.99c-.6-.02-1.55.23-1.88-.38,1.09-.05,1.34.29,1.88.38Z"/>
  <path class="st24" d="M65.2,25.24c-.07-1.6-.9-2.55-.75-4.13-1.09-.08-1.52.96-2.62.37-.12-.55.23-.36.75-.37l-1.12-.37c1.05-1.99,1.5.47,2.63,0l.37-.75c.17.09.7-.05,1.1.2,1.2.76,1.75,1.78,1.9,3.17.58.57.84,2.37,0,2.62,1.11-2.42,1.44,3.53,0,1.5-.64-.41-.73-1.18,0-1.5-.46,1.16-1.11.22-1.15-.77l-.35.02c-.12,1-.46.95-.75,0h-.01Z"/>
  <path class="st141" d="M62.95,22.24c.47.36.96.74,1.06,1.37.03.22-.31,3.62-.49,3.71s-.37.14-.57.17c-.08.92-.5.9-.75,0-.78-.24-1.01-1.17-.69-2.8-1.07-.28-1.59-.97-1.56-2.08-.76-.08-.65-.43,0-.75,1.42-.34,1.64-.15,3,.38h0Z"/>
  <path class="st11" d="M58.45,20.74c-.42.5-1.12,1.65-1.5,2.25.68.61-.1.89-.75,1.12.31,1.05-.52,3.73-1.5,4.12l-.75.38c.18-2.52.44-3.44,1.5-5.62-.56-.43-.31-.85.38-.75.06.03.3.02.38,0,.23-.9.59-1.27,1.5-1.5h.75,0Z"/>
  <path class="st123" d="M62.95,22.24c.52.2,1.43.54,1.52,1.3.08.63.11,3.22-.02,3.71-.11.41-.72.21-.76.25-.06.68-.66.73-.75,0,.42-1.03-.08-2.91,0-3.54.05-.43,1.3.44,0-1.71h0Z"/>
  <path class="st255" d="M59.95,21.87c-.05.22.07.62,0,.75.34.67.09,1.3-.75,1.88-.22.69-.52.69-.75,0-.24.98-.45.96-.75,0-.17.02-.42-.1-.75-.38-.05,1.02-.43.97-.75,0,.21-.39.51-.75.75-1.12,1.61-.02,1.53-.78,3-1.12h0Z"/>
  <path class="st169" d="M54.7,22.61c.13-.27-.29-1.72.73-1.1.06.04.1.58.39.73,0,.32-.27.53-.38.75l-.75-.38h0Z"/>
  <path class="st8" d="M57.7,20.74c-.05.39-1.1,1.4-1.5,1.5v-1.5h1.5Z"/>
  <path class="st5" d="M80.95,22.99c.4-.6,1.15-.35,2.25.75v.75c.73.73.73,1.52,0,2.25-.05.92-.3,1.42-.75,1.5-.39-1.38-.64-1.63-.75-.75.65,1.05-.25,2.03-.75.75l-.55-1.32c.51-.8.54-1.79-.2-2.43-.11.33-.23.32-.38,0,0-.05-.49-.31-.31-.66.04-.07,1.12-.98,1.44-.84Z"/>
  <path class="st120" d="M81.33,21.49c1.12.45,1.72-2.01,1.88,0-.04.74,0,1.5,0,2.25l-1.5,1.12c.58-.78,0-1.56-.75-1.87.02-.24-.04-.51,0-.75.07-.46.29-.54.38-.75h-.01Z"/>
  <path class="st143" d="M85.45,28.61c.3.63.32,1.27,0,1.88h-.38l-.75-.33c.46-1.99.58-3.88.38-5.67-.04.04-.54,0-.75,0,.04-.49-.06-1.01,0-1.5,1.54.34.13-1.84,1.12-2.62.18,2.76.37,5.47.38,8.25h0Z"/>
  <path class="st82" d="M66.7,31.99c-1.04-.03-1.29-.99-.38-1.5.07-.8.4-1.88,1.12-2.25-.55-.16-.53-.49,0-.75.92.48.98-1.17.75-1.5-.04-.06-.53.03-.75,0-.02-.85.09-1.82,0-2.62l.75.38h.01"/>
  <path class="st95" d="M108.33,27.49c.69.84,1.22,1.2,1.88,1.88.81.4,1.31.9,1.5,1.5,1.02,1.08,1.98,2.29,3,3.38-1.19.02-.85.38-.97,1.11-.58,3.51-.03,8.16-.14,11.84-.03,1.04-.7,3.9-.66,4.48.03.4,1.49,1.23,1.02,1.69-.75.73-1-1.92-1.12,0-2.54-.88-5.52-3.83-6.38-6.38h1.12c-.44-.87,0-1.65-.03-2.4-.02-.37-.34-.67-.34-.78v-13.12c0-1.15-.27-.36-.38-.81-.02-.1-.05-1.92,0-2,.05-.06.85.69,1.12-.37.11-.33.23-.32.38,0v-.02Z"/>
  <path class="st143" d="M122.2,31.61c-.46-1.98,2-.86,3-1.12l-1.12,1.5c-.24-.1-1.23-.17-1.88-.38Z"/>
  <path class="st143" d="M130.82,33.49c.49,1.19-2.24,1.38-2.24.56,0-.57,1.7-.67,2.24-.56Z"/>
  <path class="st143" d="M110.2,29.37l1.5.75c-.08-.48.67-2.17.94-2.26,1.65-.51.62.83.56,1.13-1.06,0-1.37.97-1.5,1.88-.47-.5-1.01-1-1.5-1.5Z"/>
  <path class="st143" d="M105.7,24.87c-.63-.61-1.25-1.29-1.88-1.88.96.1,1.78.9,1.88,1.88Z"/>
  <rect class="st143" x="109.45" y="24.87" width="1.5" height=".75"/>
  <path class="st143" d="M111.32,27.49l-.38,1.12c-.55.12-.78-.17-1.12-.56,0,0,1.5-.56,1.5-.56Z"/>
  <path class="st143" d="M108.33,27.49h-.38l-1.12-1.5c.08.07.61.04.96.34.48.42.41,1.01.54,1.16Z"/>
  <path class="st143" d="M107.95,24.87c.77.96-1.2.95-1.5-.38.28-.03,1.45.32,1.5.38Z"/>
  <path class="st143" d="M108.7,27.11l.18-1.5c.82.58.73,1.16-.18,1.5Z"/>
  <path class="st143" d="M113.2,30.49l.38,1.12c-.42-.27-.81-.54-1.12-.94-.02-.39.67-.09.75-.19h-.01Z"/>
  <path class="st95" d="M103.83,44.37l1.32-1.5h.55c-.21,1.04.76.37.96.71.79,1.35-.1,2.69-1.7,2.29-.64-.64-.98-1.35-1.12-1.5h-.01Z"/>
  <path class="st124" d="M98.2,38.74c.97.35,2.29,1.8,3.08,2.72.39.45.95.41.67,1.41-.57-.57-1.93-1.54-2.25-1.88-.05-.05.05-.44-.12-.61-.52-.52-1.45-.59-1.38-1.64Z"/>
  <path class="st124" d="M97.45,37.99c.4-1.14,1.97-.51,2.62,0l.75-1.5c-.32,2.87-1.48,1.77-3.37,1.5Z"/>
  <path class="st72" d="M92.2,16.61l-2.43,1.14.92-.4c.11-.51-.49-.39-.75-.75.72.07,1.56-.1,2.25,0h0Z"/>
  <path class="st37" d="M86.95,37.24s-.35.49-.75.75c-.12-.25-.26-.5-.38-.75l.23-.31.89.31h.01Z"/>
  <path class="st37" d="M83.95,37.99v.75c.56.16.37-.63.73-.95.64-.56,1.03-.12.39.57.17.42-.08.92-.75,1.5v.38c-.33.05-.99.92-1.12.75l.37-3c.11-.04.26.03.38,0Z"/>
  <path class="st196" d="M85.45,38.37c.22,1.09-.2,1.21-1.12,1.5-.55-.24.41-1.25.75-1.5.08-.06.29.06.38,0h-.01Z"/>
  <path class="st48" d="M85.45,30.49v-1.88c.56.24.64,1.68,0,1.88Z"/>
  <path class="st259" d="M79.6,119.25c.58.13,1.16.31,1.73.5h0c.65.11,1.28.23,1.88.37,2.38.23,1.81,5.04.75,6.38h-.38c-2.46.36-1.57-3.76-1.14-5.54-7.49-.06-15.02,0-22.58.18l-1.04,3.28c1.51,1.78.64,2.47-2.62,2.09-5.61-.13-12.16-.63-17.62-.38l-13.5-1.88-.7-.21c-.58.43-1.01-1.81.33-1.67,3.6-2.06,9.08-2.79,13.12-1.88.55-.24,1.11-.46,1.69-.62s1.14-.33,1.71-.36"/>
  <path class="st90" d="M56.2,126.49h2.62c.26-.84-.72-1.43-.74-2.06-.02-.76,1.34-2.61.74-3.94,8.01-.86,16-.04,24,0,.04,1.56-.05,3.14,0,4.71.02.72-.38,1.5.75,1.3-9.15.26-18.24.2-27.38,0h.01Z"/>
  <path class="st259" d="M88.83,120.11l1.25-.74c3.16-.09,18.85.28,20.37,1.63.2.17.36.39.51.61,1.22.24,5.29,1.19,2.62,2.62-.08.32-.21.31-.38,0-.78-.02-2.32.3-3,.75-3.67-.09-7.73.89-11.44,1.12-4.92.3-9.88.23-14.81.38-.38-1.85.87-5.14-.75-6.38,1.86-.31,3.74-.31,5.62,0h.01Z"/>
  <path class="st65" d="M118.83,70.24c3.83-.98,3.44.83.89,3.13-.38,4.41-.67,8.83-.86,13.28l.54,1.95c.34-1.95,2.76-1.25,2.06.39v.38c-.58-.03-7.29,7.21-8.25,8.25.26.5-.6.96-1.12,1.12-.17.2-.61.21-.75.75h-.38c-1.43,1.03-1.89-1.73-1.4-2.88-.2-3.62-.26-7.24-.18-10.87-.94-.89-1.91-1.8-2.89-2.72.59-.59,1.08-1.22,1.47-1.9-.82-.85,0-1.8,1.12-1.5.03-.75.6-1.48,1.69-2.19-.03-.3-.03-.57.1-.72,1.56-1.79,4.79-4.65,6.69-6.2l1.27-.27h0Z"/>
  <path class="st281" d="M125.77,120.48"/>
  <path class="st281" d="M113.2,97.61c1.75-.09-.27.81-.94,1.49l-.18-.37c.43-.51.78-.76,1.12-1.12h0Z"/>
  <path class="st281" d="M122.19,122.74h0c-.46.61-.68,0-.75-.55"/>
  <path class="st247" d="M113.25,120.59c.08.4,2.44,1.59,1.86,2.14-.16.15-3.03-1.88-4.12-1.12-6.5-1.3-15.43-1.45-22.12-1.5-2.51-.14-5.01-.26-7.5-.38-14.4-.02-29.18-.35-43.5.75l-.91-.14"/>
  <path class="st212" d="M107.95,81.11c-.07.12.12.59,0,.87s-1.33.28-.75,1c.04.05,1.25-.27,1.33-.34.83-.72,0-1.5,1.67-.78l-2.25,2.24c.7.37,1.86-1.07,2.25-.74.75.62-.79.82-.75.93.23.62.67.8.76,1.87.26,2.99-.53,7.45-.03,10.12.09.5,1.05-.06,1.15.39,0,.16-1.82.92-1.5,1.31.05.06.51-.07.64.06.11.1-.59,1.26.48,1.45l-1.12,1.5c-.12.31-.25.31-.38,0-1.39.92-2.64,2.17-3.75,3.75-.13.12-.25.25-.38.38-1.01.79-1.78-.43-2.03-1.45,0-4.21-.07-8.39-.22-12.56-.75-1.45-1.54-2.16-2.63-1.37,1.08-1.8,2.58.74,1.33,1.65-1.15.84-3.34-.86-1.33-1.65-.56,1.32-1.06,1.44-1.5.38-.74-.86,0-1.8,1.12-1.5.11-1.28,1.47-2.04,2.62-2.62-.16-.32-.02-.44.38-.38-.11-.59.16-.87.75-.75-.16-.32-.02-.44.38-.38.08-1.68,2.05-3.41,3.75-3.38h.01Z"/>
  <path class="st186" d="M100.45,89.74c.06-.04.02-.61.35-.91.14-.12,1.37-.1,1.99-.58.52-.4.65-1.33,1.4-1.51-.26.39.04,1.76-.02,1.83-.21.22-1.73-.04-1.48,1.17l1.87-.37-1.13.75c1.01,1.72.27,3.36.35,5.06.09,2,.42,3.85.42,6.01,0,1.62-.94,2.62,1.11,3.92-.39.38-.74,1.12-1.12,1.5-.25.25-.5.51-.75.75-.33,1.39-1.5,2.91-3,2.62-.18.1-.35.17-.5.14-.88-.19-2.7-.6-2.86-1.27l.67-11.63c-.23-.18-.68-.25-1.35-.21-.53-1.06-1.06-2.11-1.59-3.15.03-1.38,2.69-4.32,4.12-3.75.06-.04,1.04-.03,1.5-.38-.09.1-.13.46-.37.56,2.21,2.06,1.47-1.76.37-.56h.02Z"/>
  <path class="st186" d="M109.45,100.99c.62.63-.26,1.97-1.12,1.5-.79.75-1.85,1.49-2.62,2.25l2.27-3.54.36-1.33,1.12,1.12h-.01Z"/>
  <path class="st47" d="M110.57,101.37c-.41.85-.92,1.45-1.12,1.88-.15.51-.53.26-1.12-.75.3-.28.93-1.39,1.12-1.5.05-.03.26,0,.38,0,.07,0,.37.36.75.38h-.01Z"/>
  <path class="st247" d="M113.57,124.24c.13.05.26.54.47.64.66.3,1.97-.23,1.21.86h-2.06l-.55-.75.55-.75c.13,0,.3-.03.38,0h0Z"/>
  <path class="st247" d="M109.45,103.24c-.03.07.78.8-.37,1.12l-.76-1.87,1.12.75h0Z"/>
  <path class="st270" d="M124.45,69.87c.57-.28.6.65.38,1.12.45-.41.64,1.56.56,1.5-.15-.1-.36-1.59.19-1.5.41.54.6,1.22,1.12,1.69l-1.49,1.31,3,.38c.27,1.29-1.46.52-2.38,1.09s-.71,4.69-.61,5.82c.15,1.52,1.58,1.3-.77,2.65l1.5.56c-.62.62-1.26,1.62-1.88,2.25-.28.74-1.08,1.94-1.88,1.88-.16.15-.54.23-.75.38l-1.12-1.12c-.17,1.28-1.05,3.43-2.63,2.62,1.71-1.98.49-2.52.38-3.95-.21-2.97.56-8.29.94-11.4.12-.98-.52-1.96.54-2.83h-1.5c.84-1.63,1.67-.06,1.87-.19.07-.04-.08-1.12,1.13-.75.28-1.73-1.86.32-2.25-1.12-.5-.5,1.54-3.94,1.86-4.08.65-.27,1.15.29,1.36.89,1.15-.42,2.52,1.69,2.4,2.81h.03Z"/>
  <path class="st103" d="M127.12,87.17c-.09.11.88.87-.23.69l-.94-1.5,1.12.37.19-1.5.94,1.31c-.11.37-.92.43-1.08.62h0Z"/>
  <path class="st103" d="M124.07,86.74l.37.18c-.64.67-2.38,3.62-2.24,1.69.59-.56,1.29-1.28,1.88-1.88h0Z"/>
  <path class="st103" d="M125.2,88.62c.57.7-.7,1.18-1.12.18-.37-.89,1.07-.24,1.12-.18Z"/>
  <path class="st30" d="M141.33,60.11c-.06-.61.04-1.26,0-1.87h.37l.38,1.87c-.24-.01-.52.04-.75,0,.11,1.21.69,2.69.38,4.12l-.75.38c-.67-1.32-.55-3.11-1.12-4.5l1.12-1.12c.03.65-.24,1.02.38,1.12h-.01Z"/>
  <path class="st276" d="M140.57,67.61l.38-.75h.37c-.05,1.31.5,2.21-.94,2.61l-.18-.36c.11-.56.32-1.17.38-1.5h-.01Z"/>
  <path class="st30" d="M138.33,54.5c-.63,1.78-2.56.02-1.87-.75.32-.36,1.36.89,1.87.75Z"/>
  <path class="st30" d="M139.6,57.35c.05.09,1.53,1.06.22,1.64.02-1.42-1.35-2.2-1.88-3.37.99-.13,1.25,1.03,1.65,1.73h.01Z"/>
  <path class="st185" d="M135.33,57.49c-.08.86-.21,1.68-.38,2.44.29.08.73.2.75.43.09.89.15,7.95,0,8.41l-.75.54.73-.25c-.02,1.17-.14,2.32-.35,3.44v.38c-1.17.05-.74.77-1.12,1.12-1.1.73-1.78.35-1.88-.93l.04-16.66c.18-.91.63-1.31,1.46-.79.55.6.99,1.25,1.5,1.88h0Z"/>
  <path class="st142" d="M136.45,58.61c.52,2.35.64,4.83.35,7.43.23,1.36.18,3.56-.35,5.32-.32.47-.55.91-1.12,1.12-1.52-2.13.03-2.32.03-2.47,0-.32-.4-.6-.4-.71v-9.38c0-.7-1.75-1.08.38-2.44.26.32.69.53,1.12,1.12h-.01Z"/>
  <path class="st48" d="M133.83,55.61c-.93.45-1.04,1.9-1.12,2.82-.2,2.28-.37,12.8.16,14.45.21.65.59,1.12,1.33,1.11-.64.59-1.28,1.24-2.25,1.12-.46-2.46,0-1.66.03-3.54.07-4.61.11-9.31,0-13.92-.02-.8-1.14-4.15.74-3.36.44.19.8.97,1.12,1.32h0Z"/>
  <path class="st189" d="M137.57,60.49c.33,1.67.42,3.4.28,5.17.88.87-.12,3.07-.65,4.2-.26.48-.37.93-.75,1.5v-12.75c.54.74.73,1.03,1.12,1.88Z"/>
  <path class="st38" d="M137.57,60.87c1.18,2.81,1.79,4.74.56,7.88-.29.75-.83.92-.94,1.12.39-.77-.07-2.32,0-2.78.06-.43.74-.03.76-.41s-.53-.06-.66-.25c-.57-.89.29-3.16.32-4.26.02-.7-1.86-.62-.04-1.67.05.1-.05.27,0,.38h0Z"/>
  <path class="st48" d="M131.95,75.87c1.07-.24,1.17.23,1.5,1.12-1.13.19-1.22-.15-1.5-1.12Z"/>
  <path class="st286" d="M125.2,70.61c.33.43.14.63-.38.38-.15-.36-.26-.92-.38-1.12.15-.07.29-.35.38-.38.07-.02.3-.02.38,0-.04.36.07.8,0,1.12Z"/>
  <path class="st209" d="M120.32,54.49c-.35.36-.32,1.44-.38,1.5-.78.79-1.57-2.12.38-1.5Z"/>
  <path class="st95" d="M113.58,49.61c-.22-.22.31-1.12.56-1.12,1.04,0,0,1.68-.56,1.12Z"/>
  <path class="st36" d="M37.83,120.49c-4.4.34-8.82.92-13.12,1.88l-.82.39c.26,1.15.26,2.63-.68,1.11"/>
  <path class="st55" d="M26.2,77.74c.9-.66,2.18.4,1.88,1.5,1.84,1.09,4.5,2.75,4.88,5.25.9,4.31,1.34,8.78,1.33,13.44-1.24,2.02-2.7,2.34-2.72-.45-.54-.08-.96-.29-1.24-.61q-.41-.64,0,0c1.02.51.71,1.25-.38,1.5-.17-.16-.58-.22-.75-.38-1.85-.64-2.97-1.76-3.38-3.38-.13-.12-.25-.25-.38-.38-.78-.77-1.82-2.58-2.25-3-.64-.86.51-1.28.65-2.11.08-.5.1-1.62.1-1.82v-8.81c0-.07,1.13.35.37-.75.66.06,1.29.52,1.88,0h0Z"/>
  <path class="st254" d="M29.2,97.99c-1.02,1.58.65,1.22.94,1.46.19.16,1.39,1.83,1.31,1.91l-2.62-1.5c-.3-1.43-1-1.12-.38-2.62-1.12,1.11-4.52-1.84-2.62-2.63,1.12,1.1,2.25,2.31,3.38,3.38h0Z"/>
  <path class="st254" d="M24.7,122.37c-1.44.7-.6,1.08.38,1.88h-1.12c.89,1.06.85,1.15-.38,1.88-.27-.98-.39-1.57-.38-2.25,1.37.18.3-.47.38-1.5.36-.06.8.07,1.12,0h0Z"/>
  <path class="st254" d="M28.07,99.49c-.54.32-2.72-1.45-2.25-1.87.44-.39,2.07,1.4,2.25,1.87Z"/>
  <path class="st293" d="M4.83,75.49l-1.69-1.12-.19,1.12c-1.61-.83-.37-1.23.01-2.25.22-.13,1.63,1.8,1.49,0,.08.09.83.83,1.12,1.12-.63-.5-.82.81-.75,1.12h.01Z"/>
  <path class="st293" d="M5.57,76.99c.29-.46.58-1.24,1.13-.56,0,.68-.56,1.35-1.13,1.68-.05-.35.07-.81,0-1.12Z"/>
  <path class="st268" d="M16.07,66.87c-.45.55-1.39,1.21-1.68,2.63l-1.69,5.99c-.41-1.92-.27-3.82.04-5.77.23-1.47.88-3.14,1.46-4.36.5-.48.71-.82.75-1.5.08-.14.29-.24.38-.38,1.04,1.51,2.25,1.54.75,3.38h0Z"/>
  <path class="st210" d="M14.95,63.87l.37,1.87-1.12-.37c.26-.55.43-.95.75-1.5Z"/>
  <path class="st153" d="M5.57,57.49c.68-.94,2.31.33,1.65.99.33,1.38.04,3.2-.53,4.45.18.03.32.07.33.11.12,1.74.23,5.06.15,6.77,0,.09-.21.17-.48.24.83.67.96,1.52.38,2.44-.81.9-.59-.02-.9-.22-.28-.18-.72-.13-.86-.26-.24-.22-.08-.61-.12-.64-1.11-1.5-1.11-2.06,0-1.69-1.01-.52-.84-8.45-.5-8.75.13-.12.31-.19.5-.25-.63-.45-.63-1.26,0-2.44.11-.47.29-.55.38-.75h0Z"/>
  <path class="st20" d="M5.57,57.49c.63-1.47.96-.38,1.69-1.87.83.74,1.21.93.19,1.68,2.04.85.08.87.02.95-.58.74.6.75.63.81.42.66-.56,2-.68,3.09-.19,1.69-.13,5.05,0,6.8.11,1.5,1.48,1.51-.35,3.54.23-.71-.61-1.35-.65-1.76-.04-.36.28-.58.28-.67v-7.12c0-.83-.1-1.45-.03-2.59.02-.37-.37-.83-.36-1.14,0-.28,1.07-.03.77-.77l-1.5-.94h0Z"/>
  <path class="st129" d="M5.2,58.24s.32.23.28.5c-.1.83-.28.72-.28,1.94v9c0,.11-.42.4-.35.71.1.5,2.22.9.35.97-1.46-1.46-2.75-2.6-3-4.88l.73-.6c.07-2.12.21-4.19,1.14-6.15.26-.36.44-1.1,1.12-1.5h0Z"/>
  <path class="st33" d="M4.07,59.74l-.39,6.2c-.21.7.89,3.42.77,3.55-.76.82-1.65-2.94-2.25-3-.38-3.41.08-4.23,1.88-6.75h0Z"/>
  <path class="st258" d="M32.95,30.11c-.31-1.22.66-1.33,1.49-1.87.36.42-1.02,1.73-1.49,1.87Z"/>
  <path class="st110" d="M77.95,28.24c.64.15.55,1.94,0,2.25,1,.12.95.46,0,.75.58.47.55,1.01,0,1.5.08.37-.16.81-.43.69-2.06-.83-3.67-1.76-1.82-4.07.6-.58,1.76-1.69,2.25-2.25,1.07.02,1.02.87,0,1.12h0Z"/>
  <path class="st130" d="M74.2,30.49c.62.26.89.98.81,2.17,2.27.01,3,.54,2.19,1.58.21-.72.54-.72.75,0,.57.31.55,1.18,0,1.5-.79,1.43-2.63-.91-.75-1.5-.92,2.41-6.58.83-5.25-1.5.63-.64,1.03-1.45,1.88-2.25.06-.06.31.06.38,0h-.01Z"/>
  <path class="st239" d="M80.2,24.49l.49.22c-.07,1.2.02,2.38.26,3.53.72.21.72.54,0,.75-.97,2.03-1.72,2.53-2.25,1.5l-.38-.19c.12-1,0-1.69-.37-2.06v-1.12c.45-.52,1.71-2.1,1.88-2.62h.38-.01Z"/>
  <path class="st292" d="M75.7,29.37c.09.51-.13,2.5,0,2.62.17.15,1.51-.39,1.75.74h.5c.72.22.72.55,0,.76.56.23.57.53,0,.75h-.75c-.07-1.42-.73-.5-2.06-.75-1.45-.27-.85-1.82-.94-3,.4-.39,1.09-.73,1.5-1.12Z"/>
  <path class="st66" d="M73.45,28.99c-.15.15-.22.6-.38.75-.13.12-.24.25-.38.38v-.49c-.13-.33-.74-.28-.75-.64h1.51Z"/>
  <path class="st250" d="M70.45,34.24c.99-.76,1.29.61,1.45,1.56,1.07-.25,1.99-.13,2.73.37,1.03-.81,2.28-.71,3.08.25l.24-.29c.15-.66.28-1.01.75-.38.57-.16.63.31.38.75.16,1.2-1.97,5.27-1.88,2.62-.75-.41-1.41-.28-1.96.4l-.47-.36c-.53.38-1.15.35-1.87-.09-2.23,1.94-3.84.52-5.45-1.45-.76-.84.73-2.37,1.5-3,1.17-.08.3.73,1.5-.38h0Z"/>
  <path class="st139" d="M71.95,32.74c.07,1.4,1.4,1.29,2.14,1.63.14.07.11.64.31.64.53-.01,1.22-.78,2.81-.77.05.94-.38,1.73.75,1.5.34.04.32.17,0,.38.02.22.51.69.37,1.12-1.13.27-.38-.65-1.28-.78-2.35-.34-1.81.55-2.1.77-.78.57-.68-.66-.98-.74-.72-.19-1.77.2-2.51,0-.38-.1,0-1.27-1.37-.37l1.12-.75-.75-1.12c.52-.47,1.01-1,1.5-1.5h0Z"/>
  <path class="st53" d="M68.95,34.61c.12,1.32-.83,2.03-1.5,3,.03.85-1.16,1.61-1.88,1.12-1.03,1.3-2.21,2.56-3.53,3.76h-.97c-.11.32-.23.31-.38-.01-.67-1.01.05-1.85,1.03-2.19.11-1.27.64-1.79,1.59-1.56-.18-.69.32-1.19,1.5-1.5-.64-.84,1.09-1.87,1.88-1.5.42-.3,1.16-1.03,1.5-1.12.19-.05.51.02.75,0h.01Z"/>
  <path class="st145" d="M70.83,31.99c.23-1,.9-1.31,1.5-1.88-.02,1.54-.82,1.4-1.5,1.88Z"/>
  <path class="st240" d="M65.95,25.24c.51.15.46.44,0,.75.76,1.71.88,3.21.38,4.5.09.46.32.79.38,1.5-1.04.97-1.24.99-2.25,2.25.52,1.01-.4,1.42-1.12.75-.58.54-1.92.78-2.25,0l-.06-.92c1.35-.26,2.12-.96,2.31-2.08-.2-.31.11-1.13.38-1.5.87-1.33,1.57-3.59,1.5-5.25h.75-.02Z"/>
  <path class="st164" d="M65.2,34.24c.07.03.18.29.38.38,1.39,1.39-2.07,2.86-2.62,1.12-.7-.39-.34-.61.38-.75.13-.12.56-.05,1.12-.75.23.05.58-.07.75,0h-.01Z"/>
  <path class="st101" d="M55.45,38.37c.96,1.24,1.76,2.51,2.41,3.79.35,1.51-1.76,4.33-3,4.72-.86.27-1.15-.1-1.28-1.01.3-2.69-.2-1.44-.37-2.13-.31-1.25.2-3.17.17-4.44-.01-.49-1.14-2.26.2-2.8.63.62,1.25,1.25,1.88,1.88h0Z"/>
  <path class="st213" d="M58.83,41.37c.28.28.48.8.75,1.12.93.71-1.43,2.7-2.25,3-.68.92-2.21,2.88-3.26,3.22-.13.04-.3-.07-.49-.22.78-.81-.23-1.49-.3-2.14-.03-.32.29-.45.3-.49,2.94,1.79.94-2.17,3.37-1.12v-1.88l-.75-.18c1.97-1.06.72-.66.03-1.95l-.78-2.37c.99.99,2.39,2,3.38,3h0Z"/>
  <path class="st273" d="M57.33,45.49c.18.24.05.49-.38.75,1.01.82-.27,2.69-1.5,2.25-.33.96-.89,1.98-2.25,2.25-.01.83-.66,1.53-1.5,1.5-.15,1.01-.35.92-.75,0-.71-.18-.7-.52,0-.75-.51-.24-.51-.5,0-.75.96-.2,1.82-1.51,2.62-2.25.98-.91,2.71-2,3.75-3h0Z"/>
  <path class="st262" d="M48.33,47.74c.57.97,2.11,2.14,2.62,3,.41.69,0,.68,0,.75-.76.66-1.51.91-2.25.75l-.38-1.87c-1.25-.13-.53.22-.37,1.12l-1.12-.38c-.26-1.03,1.26-1.07,1.48-1.73.31-.96-1.64-1.77.02-1.64Z"/>
  <path class="st288" d="M56.2,34.24c.46-.61,1.97.91,1.5,1.5l-.38.38c-1.22-1.11-2.31-.75-2.62-2.62-.04-.23.03-.51,0-.75.78-.23,1.28.27,1.5,1.5h0Z"/>
  <path class="st176" d="M55.07,30.49c.74.23,1.22,1.59,1.12,2.25.7.3.86,1.37,0,1.5-.52-.48-1.1-.87-1.5-1.5-.1-.76-.29-1.49-.38-2.25h.38c.07-.33.2-.32.38,0Z"/>
  <path class="st146" d="M56.95,24.11c.57.44.6,1.45,0,1.88,2.38.7,2.35,3.48,1.5,5.25-.52.68-1.27.43-2.25-.75-.16-.78-.54-.78-1.12,0h-.38c.03-.75-.05-1.51,0-2.25.14-2.23.61-2.47,1.5-4.12.23-.04.57.06.75,0h0Z"/>
  <path class="st236" d="M65.95,25.24c.02-.45.13-1.44.75-.75.4.45-.82,1.27.75,1.5,0,.5.02,1,0,1.5,0,.25.02.5,0,.75-.63,1.13-1.13.38-1.5-2.25,0-.25,0-.5,0-.75Z"/>
  <path class="st180" d="M59.95,22.61c1.17-.31.57.92.77,1.09.27.23,1.33-.1,1.48.04.14.13-.02,3.06,0,3.75,0,1.1-1.25,1.05-1.5,0l-.5-.16c-.17-.99-.51-1.94-1-2.84-.44-1.28.48-1.41.75-1.88Z"/>
  <path class="st223" d="M62.95,27.49h.75c-.05.06.02.53,0,.75-.29,1.15-.51,1.72-1.5.75-1.06-.35-1.04-1.14,0-1.5h.75Z"/>
  <path class="st287" d="M58.45,24.49c.95.34,1.96,2.42.75,3,.94.71.94,1.71,0,3,1,.12.95.46,0,.75-.11.72-.41.68-.75,0,.03-.62.14-3.62,0-3.75-.6-.57-1.42,1.31-1.5-1.5.2-.41.45-.91.75-1.5.06.06.52-.03.75,0Z"/>
  <path class="st112" d="M59.2,24.49c1.71.35,1.51,1.51,1.5,3,.72.21.72.54,0,.75-.72,1.04-1.26.26-1.5-.75-.11-1.75-.86-1.42-.75-3,.24.04.53-.05.75,0Z"/>
  <path class="st168" d="M56.95,24.11c1.4-.5.36-.03.75.38-.05.94.38,1.73-.75,1.5-.02-.62.01-1.25,0-1.88Z"/>
  <path class="st170" d="M82.45,28.24c.34.07.32.2,0,.38-.35,1.08-.6,2.21-.75,3.38.52.32.54,1.19,0,1.5-.16,1.17-.41,2.17-.75,3-.22.34-.47.84-.75,1.5.66.19.69.52,0,.75-.22.36-.47.86-.75,1.5.07.46-.16,2.01-.75,2.25-.21.72-.54.72-.75,0-.56-.19-.58-1.27,0-1.5-.59-.74-.81-1.37.23-1.46.23-1.07.66-2.08,1.27-3.04-.34-.96-.09-1.96.75-3-1-.12-.89-.32,0-.75-1.07-.72-.25-3.31.75-3.75.03-.24-.03-.51,0-.75.73.22.87-.07.75-.75.28-.33.53-.08.75.75h0Z"/>
  <path class="st231" d="M80.95,28.24c-.17-.05-1.05-1.19-1.5-1.31,1.24-.32.67-1.36.75-2.44l1.12-.37c0,1.38-.22,2.76-.37,4.12Z"/>
  <path class="st87" d="M83.2,29.74v.75c-.22.97-.46.94-.75,0-.68-.41-.42-1.26,0-1.88v-.38l.75-1.5v3h0Z"/>
  <path class="st294" d="M81.7,27.49c-.13-.64.09-1.55,0-2.25h.75c.02,1-.02,2,0,3-.24.04-.73-.67-.75-.75Z"/>
  <path class="st24" d="M65.95,25.99c1.16.62.15,2.58,1.5,2.25-.03.39.1.82,0,1.22-.09.34-.97.55-1.12,1.03-.31-1.65-.46-2.71-.38-4.5Z"/>
  <path class="st187" d="M73.83,56.74c1.06.04,2.25.78,1.5,1.88.89.48.43,1.54-.29,1.96.13,2.78-.04,5.56-.34,8.33.79.98.88,1.68.25,2.09.67.05.68.58,0,.75-.15.58-.46,1.28-1.12,1.12.33,1.2-1.5,2.92-2.62,2.25.47.53.27.72-.38.38-.34.46-1.08.79-1.12,0-.99-.38-.65-1.18.38-1.12.24-.37.24-.62,0-.75-.09.34-.22.34-.38,0,0-1.46.24-2.9.75-4.31-1.25-.36-1.15-5.04,0-5.62-1-.74-.25-3.23.35-4.09.12-.66,0-1.11-.35-1.35.68.03.43,2,0,2.13-1.13.34-1.07-.58-.74-1.38-.63-.07-.54-.41,0-.75.09-.62.4-.44.75,0-.71-.12-.99-.24-.38-.75-.3-.27-.42-.77-.38-1.5-.78-.53.71-1.98,1.5-1.88.11-.33.23-.32.38,0,.7.89,1.46,1.81,2.25,2.62h0Z"/>
  <path class="st21" d="M76.07,58.99c.24.33.72.7.75.75.71,1.27,1.12,4.14,1.12,5.62.75,1.13-.96,5.31-2.25,5.62-.22.98-.43.96-.75,0-.33-.32.04-1.23-1.13-.94.41-3.45.7-7.19.38-10.68l.56.75.56-1.5c.71-.72.88-.64.75.38h.01Z"/>
  <path class="st246" d="M80.95,42.49c1.45.22.46.54.77,1.98.07.33,1.4.97,1.47,1.3.08.4.1,2.62,0,2.73-.28.36-1.35-.78-1.38-.86-.38-.99.4-1.78-1.38-1.39-.37.08,0,1.12-.99.75-.17-1.72,1.13-2.85,1.5-4.5h0Z"/>
  <path class="st107" d="M73.83,56.74c-.23-1.69,1.32.47,1.87,0s-1.71-1.54-1.5-2.24l1.31,1.12.37-1.12c.82.43.21,1.16.32,1.63.26,1.05,1.41,2.15-.13,2.87-.1-.14-.63-.22-.75-.38-.53-.64-.7-1.04-1.5-1.88h.01Z"/>
  <path class="st178" d="M74.95,50.74c-1.95.46-.86.42-1.66,1.35-.57.67-1.53,1.01-1.72,2.02h-.38c-.33-.11-.32-.23,0-.38-.86-.7-.09-1.25.76-1.47.02-.85.61-1.78,1.49-1.9.12-.58.37-1.08.75-1.5.17-.65.3-.98.75-.38.65.76.74,1.54,0,2.25h.01Z"/>
  <path class="st290" d="M77.2,44.74c0,.25,0,.5,0,.75-.36,1.01-.86,1.76-1.5,2.25.44.46-.26,1.17-.75.75-.55-.75-.58-1.52,0-2.25.11-.43.36-.68.75-.75.25-.94.43-1.55,1.5-1.12.33.11.32.23,0,.38h0Z"/>
  <path class="st267" d="M76.45,47.74c-.09.17.09.66,0,.75.02-.04.72-.41.75-.37v1.12c-.63.19-1.05-.16-.75-.75-.06.06-.55-.1-.7.06-.3.34,1.08,1.74-.8,2.19v-2.25c.4-.31.44-.32.75-.75.5-.65.75-.65.75,0Z"/>
  <path class="st76" d="M78.7,42.49c-.05.23.05.53,0,.75-.15.68-.8,1.58-1.5,1.5v-.38c-.62-.91-.36-1.69.75-1.88.25.02.5-.02.75,0h0Z"/>
  <path class="st269" d="M76.45,47.74h-.75c.4-.56.5-1.89,1.5-2.25-.08,1.36-.22,1.22-.75,2.25Z"/>
  <path class="st107" d="M117.7,60.11l-1.12.38v-1.12c.46-.24,1.3.59,1.12.74Z"/>
  <path class="st197" d="M83.2,30.49c.09,0,.45.28.75,0l-.75,3.75c-.31.14-.73-.68-.75-.75-.54-.76-.54-1.76,0-3,.11-.06.52.01.75,0Z"/>
  <path class="st253" d="M82.45,33.49c.09.8.05.84-.75.75-.25-.13-.25-.38,0-.75.02-.5-.02-1,0-1.5.05-1.12.3-1.62.75-1.5.03.93-.14,2.16,0,3Z"/>
  <path class="st63" d="M81.7,34.24c-.03.73.08,1.55,0,2.25-.29.85-.44.88-.75,0,.05-1.03-.07-2.21.75-3,0,.25,0,.5,0,.75Z"/>
  <path class="st90" d="M88.83,120.11c-1.87,0-3.76.04-5.62,0-.6,0-1.56.22-1.88-.38,2.4,0,5.24-.32,7.5.38Z"/>
  <path class="st270" d="M117.7,75.11c-.15-.49.56-1.89.74-1.5.1.67-.02,1.31-.74,1.5Z"/>
  <path class="st124" d="M86.56,112.25l.19-3.55c1.94,1.15,2,.92,1.12-.96-.27-3.21-.44-6.42-.51-9.64l-.8-.1c-.29,0-.73-.04-.78-.24-.36-1.47-1.24-6.57.56-6.54,2.18,1.93,4.94,2.84,7.79,1.95l.68.71h.02c1.89.18,1.74,2.51,1.88,2.62.12.09,1.4-.76,1.79.64l-.67,12.11c1.18-.48,1.93-.45,2.62.75.83.58.62.8-.38.75-.13.12-.24.27-.38.38.4,1.01-1.2,1.9-1.88,1.12"/>
  <path class="st175" d="M35.57,87.11c.55.7,1.56,1.15,3.03,1.34-.26.49-.4.92-.4,1.28q1.35.26,0,0c-.22-2.06,4.36-1.02,5.39,0,1.18,1.16.6,3.98.11,5.43l.51.2c-.56,2.55-.35,6.2-2.25,7.88-1.39.32-3.07.4-4.5.38.05-.11-.06-.32,0-.38q.69-.17,0,0c-4.02-.35-4.97-2.54-7.5-4.88.08-.5.32-1,.38-1.5-1.58-.05-1.03-1.05-.19-1.87.32.36.24,1.39.19,1.87.55.02,1.05-.68,1.69-.02.69.72.36,1.43.19,2.27l1.41-1.36-.65-10.01-1.13-.83c-.2-1.12.7-.13.74-.18.41-.43-.11-1.85.38-2.25.61.59,2.15,2.29,2.62,2.62h-.02Z"/>
  <path class="st49" d="M56.95,74.74c.54.31.61,1.95,0,2.25,1.2.67,1.81,1.9,1.15,3.26l.42,3.41c3.66.18,1.17,2.41-.55,3.52.32.08.36.43.1,1.06.59,1-1.18,3.09-2.25,2.62-.19,1.26-1.03,1.95-2.25,2.25-.37.37-.75.75-1.12,1.12.13.97,0,.98-.75.38-1.98.22-.79-2.25.49-2.82l-.08-1.94c.71-1,.6-1.77-.33-2.31.92-2.26.64-3.26-.83-3v-1.18c.52-1.18,1.17-2.31,1.89-3.38.51-.57,1.14-1.07,1.88-1.5l-.27-.32c.73-.96,1.19-1.97,1.39-3.05-.33-.31-.09-.48.38-.38,0-.7.63-.76.75,0h-.02Z"/>
  <path class="st80" d="M48.7,88.99c1.42-2.39,2.97-2.1,2.41.85,1.66.84.88,2.02-.53,2.68.29,1.5-.07,2.67-1.08,3.5l-.05.85c.44.46.3,1.01-.38.75-.13.12-.25.25-.38.38-.27,1.39-4.59,5.49-4.12,2.62,1.05-2.86,1.92-5.78,3-8.62.4.1.52-.28.38-1.12.24-.62.51-1.28.75-1.88h0Z"/>
  <path class="st222" d="M86.57,97.99c.06-.45.86-1.54.75-2.25,1.1.65.74,2.8.74,3.93,0,2.03.36,2.63.42,4.12.04.9-.41,1.74-.34,2.55.09,1.09,1.82,2.97.67,3.82-.15.11-.7-.19-.72-.16-.21.33.23,1.68-.77,1.86l-.37-3-.38,3.37c-.12-1.3-.05-2.45,0-3.75.11-.33.23-.33.38,0,.32-.97.32-2.03,0-3-.29-.89-.53-2.18-.38-3-1.2-.33-1.3-4.28,0-4.5h0Z"/>
  <path class="st220" d="M64.07,90.49c1.65,1.02,2.78,2.27,3.38,3.75,1.12.29,2.03.52,1.5,1.88.21.11.21.24,0,.38h-.75c-.02-.81-.24-.56-.38-.75-.78-.43-1.4-.93-1.88-1.5-.34-.3-.43-.24-.75-.75-.06-.1.14-.59-.04-.71-.58-.39-2.79-.03-2.21-2.29.09-.22.21-.2.38,0,.21-.73.54-.74.75,0h0Z"/>
  <path class="st61" d="M52.45,94.24l1.12,1.69-.37.39c-1.62-.24-1.37.67-1.88,1.3-.36.44-.33-1.44-1.12-.74-.28.25-.1,1.46,0,1.87l-1.12-1.12c.16-.15.22-.6.38-.75.08-1.28.92-2.28,2.25-2.25.27-.27.68-.31.75-.38h0Z"/>
  <path class="st277" d="M48.7,97.99c.75,1.23-.55,1.45-1.08,2.1-.29.35-.35,1.18-.45,1.26-.06.04-.51-.34-.64-.26-.2.14-.8,1.25-1.39,1.41l-.93-.38c.05-.1.17-.93.38-1.5-.14,1.06.2.8.83.35.9-.64,2.43-2.15,3.29-2.97h-.01Z"/>
  <path class="st243" d="M100.07,110.74c.15-.13.22-.61.38-.75.98-.87,2.06-1.72,3-2.62.73,1.19-1.19,3.19-2.06,3.78-.73.48-.73-.12-1.31-.4h-.01Z"/>
  <path class="st277" d="M97.83,112.23c.64-.29,1.33-.68,1.88-1.12h-.01"/>
  <path class="st279" d="M86.57,102.49c.02.64.36,1.85.38,3,.32.98.32,2.02,0,3-.07.06-.31-.06-.38,0-.69.64-.32,1.37-.38,2.25h-.37l-.38-1.5c-.57.02-.53-.56,0-.75.5-1.97.6-4.03.29-6.17l.84.17h0Z"/>
  <path class="st152" d="M73.45,102.49c-.29,1.47-1.39,1.7-3,1.5-.62-1.97,1.35-1.72,3-1.5Z"/>
  <path class="st262" d="M56.2,91.99c-.08.08,0,.68-.35.92-.14.1-1.64-.02-2.08.58l-.2-.38c.75-.75,1.51-1.5,2.25-2.25l.38,1.12h0Z"/>
  <path class="st13" d="M85.45,108.49c.06.14,0,.52,0,.75.03.88-.29,1.49-.38,2.25-.66.46-1.3.59-1.88,0-.18-.27-.57-.48-.75-.75,0-.75.38-.75,1.12,0,.25-.82.62-1.57,1.12-2.25v-.38c.72-.71.89-.64.75.38h.02Z"/>
  <path class="st234" d="M74.57,101.74c-.44.42-1.08.25-1.12-.38-.12-.08-.24-.26-.38-.38-.66-.06-1-.49-1.12-1.12-.25-.14-.31-.32-.75-.38l.38-.75c1.68.36,2.64,1.32,3,3h-.01Z"/>
  <path class="st279" d="M85.07,111.49s.39.15.38.37c-.64.06-1.41.53-2.04.41-.44-.09-.12-.64-.21-.78h1.88-.01Z"/>
  <path class="st227" d="M65.95,94.24c.06.05.41-.07.62.12.26.23,1.04,1.09,1.25,1.38l-1.88-.75v-.75h.01Z"/>
  <path class="st148" d="M74.57,101.74c.32-.16.44-.02.38.38.21.11.21.24,0,.38l-1.5-.38v-.75c.33.23.73.32,1.12.38h0Z"/>
  <path class="st148" d="M73.07,100.99c-1.19.13-1.25.07-1.12-1.12.72.39.77.81,1.12,1.12Z"/>
  <path class="st103" d="M102.7,85.99c-.87.87-1.77,1.75-2.62,2.62-1.32-1.55-.35-.96.45-1.54.6-.43,0-.93,1.43-.34l-.37-1.69,1.13.94h-.02Z"/>
  <path class="st103" d="M103.83,84.87l-.75.75c-.55-.59-.25-1.06.56-1.12l.19.37Z"/>
  <path class="st212" d="M101.95,91.24c.44.45-.75,1.48-1.5,1.12-.56-.71,1.3-1.32,1.5-1.12Z"/>
  <path class="st192" d="M125.57,70.99l-.19,1.5c-.21,0-.39-1.1-.56-1.5.1-.12.35-.27.38-.38.13.12.27.24.38.38h-.01Z"/>
  <path class="st254" d="M15.7,84.49c.28.31-1.72,2.83-2.25,3l-.38-3.37.75,1.87,1.87-1.5h0Z"/>
  <path class="st105" d="M47.95,54.49c.04.67-1.13,2-1.78,2.72-.13.14-.29.23-.47.28-.14.83-.83,1.6-1.5,1.5-.54-.22-.52-.5,0-.75.08-.53-.19-1.33.08-1.79.46-.77,3.49-1.81,3.67-1.96Z"/>
  <path class="st174" d="M44.2,69.87c.41.07.62.44.62,1.1,1.36.16,2.5,2.61,2.76,3.78-.11.33-.23.32-.38,0-.53-.6-2.12-.7-2.21-.78s-.46-1.52-.79-2.22c-.52-1.11-.6-.76-.75-2.25.72-.71.81-.63.75.38h0Z"/>
  <path class="st91" d="M50.95,51.49c0,.23.05.58,0,.75l-1.35,1.25c-.62,1.47-1.17,1.81-1.65,1,.08-.07-.08-.55,0-.75.23-.59.3-.97.75-1.5.06-.07,1.38-.92,1.46-.95.28-.1.57.04.79.2Z"/>
  <path class="st116" d="M43.45,60.49c.98.51.69,2.6-.17,2.98l.17,4.14c.96.43.96.7,0,1.12-.3.53-.55.28-.75-.75-.1-2.25.35-5.47,0-7.5-.05-.63.56-.55.75,0h0Z"/>
  <path class="st229" d="M41.95,55.99c.87.84-1.97,4.88-1.5,0,.36.06,1.4-.09,1.5,0Z"/>
  <path class="st229" d="M42.7,60.49c-.03-.19-1.24-1.32-.75-2.25.79.06.1,1.46,1.3,1.5.54.02-.43-1.87.94-1.5-.04.24.05.53,0,.75.63.81.45,1.89-.75,1.5h-.75,0Z"/>
  <path class="st103" d="M30.32,76.24c.22.22-.31,1.12-.56,1.12-1.04,0,0-1.68.56-1.12Z"/>
  <path class="st103" d="M28.82,77.36c-.85-.23-.8-1.17-.74-1.87h.37l.38,1.87h-.01Z"/>
  <path class="st147" d="M43.45,68.74c.75.09.72.46,0,.75-.16-.07-.62.15-.75-.26-.11-.35.02-.84,0-1.24l.75.75Z"/>
  <path class="st190" d="M80.95,28.99c-.17,1.37-.51,2.43-.75,3.75-1.28,1.74-2.09-.15-1.99-.86l-.26-.64v-.75c.21-.72.54-.72.75,0,1.2,0,.67-.32.75-1.5h1.5Z"/>
  <path class="st191" d="M77.95,31.24c1.13-.24.7.56.75,1.5h1.5c-.04.23.04.52,0,.75-.77,2.09-1.27,2.59-1.5,1.5-.28-.55-.53-1.05-.75-1.5v-2.25Z"/>
  <path class="st98" d="M77.95,28.24c1.28-.31.61,1.21.75,2.25h-.75v-2.25Z"/>
  <path class="st1" d="M77.95,33.49c1.13-.23.7.56.75,1.5.75-.01.71.55,0,.75l-.75.38v-.38c-.03-.5,0-1,0-1.5v-.75Z"/>
  <path class="st251" d="M77.95,40.99c-.25.27-.5.27-.75,0l-.45.84c-.78-.07-1.51.15-2.18.66-.11.33-.23.32-.38,0-1.89-.63-3.94-.76-6.16-.41l-1.37-.33c-1.44,2.23-3.8-1.38-1.78-2.09l.68-.92c1.04-.24,2.23-.46,3.22.09.78,1.73,3.05,1.29,4.15.18l2.71.14c.62-.6,1.03-.89,1.54-.04.05,0,.4.51.75.37-.46-1.62,1.14-1.5,1.13-3,.11-.33.23-.32.38,0-.45,1.91-1.01,2.94-1.5,4.5h0Z"/>
  <path class="st14" d="M67.45,37.61c2.29-.28,1.32,1.7,2.81,1.9,1.92.26,1.66-.7,1.95-.77.96-.23,2.29.21,3.24-.01.13-.03,1.11-2.13,1.75.38-1.39.04-1.43,1.05-1.51,1.11-.83.56-.65-.68-.93-.74-.89-.2-.44.63-.57.74-.8.68-.7-.66-.75-.71-.71-.64-.71.67-.98.74-.46.12-2.4.09-2.97.02-.71-.09-.48-.63-1.01-.88-1.07-.52-2.37.55-2.91-.64.54-.3.52-.96,1.88-1.12v-.02Z"/>
  <path class="st51" d="M80.2,33.49c-.2,1.03-.51,1.98-.75,3h-.38c-.35-.1-.37-.43-.38-.75,0-.2-.03-.72,0-.75.09-.08.69.09.75,0,.28-.4-.6-1.85.75-1.5h.01Z"/>
  <path class="st60" d="M65.57,38.74c-.06.77-.23,1.57-1.12,1.5v.36c1.07-.23.64,1,.75,1.13.64.72.76-.73.98-.78.61-.13,1.32.39,1.87.37,1.9-.08,2.9-.11,4.84-.04.39.01,1.2-.42,1.31-.3.1.1-.06,1.12,0,1.5,1.32,1.3-.29,3.04-1.93,2.41-1.07-.41-1.38-2.44-1.14-2.13,2.16,2.77-6.51,2.14-7.8,1.99l-.39-.78c-.14.34-.38.58-.75.56.14,2.31-2.06,1.34-3,.19-1.42-.36,1.03-2.02,1.88-2.25,1.09-1.38,2.75-2.76,4.5-3.75v.02Z"/>
  <path class="st62" d="M60.7,42.49h.38c-.17.21-.12,1.25-.44,1.44s-1.04-.1-1.36.14c-.2.15-.04.64-.08.67,0,1.22-1.03,2.28-2.25,1.5.11-.25.26-.5.38-.75.59-.57,2.08-2.91,2.25-3,.19-.1.82.07,1.12,0Z"/>
  <path class="st164" d="M64.83,37.24c-.42.41-1.15,1.11-1.5,1.5l-.37-.2c-.36-1.24.83-1.15,1.87-1.3Z"/>
  <path class="st73" d="M57.33,33.49c1.15.99,1.86.9,3.33.71l.42.79c.75.04,1.5-.03,2.25,0-.12.12-.26.53-.38.75-1.57.2-3.71.63-5.25,0-.1-.04-1.24-1.26-1.5-1.5v-1.5c.23-.93,1.88-.04,1.12.75h.01Z"/>
  <path class="st23" d="M63.33,31.99c0,.15.77,1.08.32,1.82-.18.29-2.19.59-2.57,1.18-1.31-.07-2.46-.57-3.7-.55l-.05-.95c0-.84.48-.82.75,0,.68.36,1.43.36,2.25,0,.13-.48.69-1,1.12-.75-.16-1.07.7-.91,1.5-.75.11-.27.23-.26.38,0Z"/>
  <path class="st127" d="M63.7,30.49c-.02.62-.37,1.23-.38,1.5h-.38c-1.24-1.06-1.72-1.79-.75-3,.61-.1,1.03-.37,1.5-.75-.07.72.03,1.51,0,2.25h.01Z"/>
  <path class="st205" d="M59.2,44.74c.59.26,1.03.81,1.31,1.65.86-.27,1.85-.44,2.07.6.64.61,1.51.95,2.6,1.02l.8,1.18c2.08.06,3.01,1.13,1.85,3.05-.12.34-.24.34-.38,0-.65,1.02-1.38.48-2.16-.25.02.61-.15.92-.84,1-.39,1.51-1.71.31-1.53-.97l-3.57.97c-1.79.12-6.16-2.98-3.91-4.5.78-.83,1.04-1.2,1.5-2.25.75-.29,1.57-1,2.25-1.5h0Z"/>
  <path class="st230" d="M55.45,48.49c-.6,1.26.78,1.6.75,1.69-.12.44-.88-.14-.75.56,1.7-.48,1.84,1.55,3.56,1.54.68,0,3.87-1.57,4.69-.79.24.23-.6,1.83.75,1.5,1.88.88.41,2.46-1.5,2.25.43,1-.87,1.58-1.5.75-1.38,1.44-4.22,1.09-5.17-.81-1.05,1.42-2.08,1.94-3.08,1.56,1.19.45.33,1.27-.44,1.82.54.45.35.89-.31,1.18-3.57,2.68-2.3-5.5.75-3-.34-.37-.86-.47-1.57-.27l-.3-.85c-.2-.49.1-.73.91-.71l-.16-.41c-.68-.18-1.01-.29-.38-.75.16-.39,1.28-2.13,1.62-2.23,1.95,1.2,2.07.14.33-.05l-.46-.73c.21-.76,1.08-1.56,1.63-2.12.17-.18.57-.08.62-.13h0Z"/>
  <path class="st0" d="M53.2,50.74c.45-.06,2.02.05,2.2.61.57,1.76-1.11,1.47-.7,3.14-1.35.3-.57-1.47-.75-2.25-1.17-.24-.55.45-.75.81-.35.62-.93.52-1.5.68-1.07-.15-.74-1.1,0-1.5.09-.71.7-1.39,1.5-1.5h0Z"/>
  <path class="st215" d="M51.7,52.24c-.05.39-.06,1.12,0,1.5.03.21.3.51.38.75-.2.38-.58.63-1.12.75-.39,1.12-.82.74-1.5,0-1.56-.34.62-2.29,1.5-3,.22-.05.51.03.75,0h0Z"/>
  <path class="st233" d="M56.2,30.49c1.13.53,1.75,1.28,1.88,2.25,1.03-.26,1.14,0,.38.75-.11.19-.23.18-.38,0-.24-.04-.56.06-.75,0-.06-.02-.41-.91-1.12-.75-.47-.73-1.05-1.32-1.12-2.25.36-1,.77-1,1.12,0h-.01Z"/>
  <path class="st12" d="M56.2,30.49c1.72-.13-.22-1.51,1.5-1.5.19,1.39-.64,2.16.75,2.25.95.5.55,1.27-.38,1.5-1.25-1.75-1.81.49-1.88-2.25h.01Z"/>
  <path class="st27" d="M55.07,30.49c-.07-.79.06-2.59,1.12-2.25.02.75-.02,1.5,0,2.25-.37.03-.75,0-1.12,0Z"/>
  <path class="st96" d="M62.2,27.49c0,.5-.03,1,0,1.5-.14,1.01-.45.96-.75,0-.21.72-.54.72-.75,0-.98-.11-.94-.47,0-.75v-.75h1.5Z"/>
  <path class="st64" d="M59.2,31.24c.11-.59.46-.54.75,0,1.41.58,1.66,1.21,0,2.25-.47.3-1.16.53-1.5,0,.04-.28-.36-.65-.38-.75-.08-.7.36-1.19.38-1.5.25.02.5,0,.75,0Z"/>
  <path class="st278" d="M60.7,28.99c.25-.02.5.02.75,0,.83.94.85,2.18-.75,2.25-.08.6-.41.51-.75,0-.25-.02-.5,0-.75,0v-.75c.07-.54.16-.96.37-.4-.08-1.18.16-2.28,1.13-1.1Z"/>
  <path class="st232" d="M59.2,27.49l1.5.75v.75c-1.69.14.14,1.68-1.5,1.5,0-.99.06-2.01,0-3Z"/>
  <path class="st5" d="M82.45,30.49c-.55.29-.24,1.15-.75,1.5.04-1.13-.43-2.89.75-3.38,0,.62-.02,1.25,0,1.88Z"/>
  <path class="st194" d="M77.95,40.99c-.12.38.12,1.13,0,1.5-.98,1.78-2.43-.98-.75-1.5.08-.02.25-.41.53-.37l.22.37Z"/>
  <path class="st182" d="M80.2,38.74c-.13,2.35-.2,1.03-.75,1.5.05-.94-.37-1.74.75-1.5Z"/>
  <path class="st137" d="M80.95,36.49c.53.18.39.84,0,1.12l-.75.38c.03-.5-.03-1,0-1.5.25-.02.5.02.75,0Z"/>
  <path class="st34" d="M68.95,56.74c.59.05.96.3,1.12.75.11.04.22.62.38.75-.02-.03-.54,0-.75,0-.47.69-.69,1.38,0,.75l.38.75h.37c-.06-.37.11-1.36,0-1.5.07.06.55-.12.69.05.32.39-.38,4.56-.69,5.39v5.62c0,.11.32.42.35.78.07.98-.62,1.68.4,2.78l-1.5.75c-2.8,1.22-3.95-2.62-2.25-4.12-1.02-2.6-.95-5.42.16-8.22-1.29-.9-.72-1.29.59-1.53-.58-.34-.68-.88-.75-1.5-.94-.11-.89-.48,0-.75.57-.84,1.07-1.09,1.5-.75Z"/>
  <path class="st156" d="M67.45,69.49c.03.86-.21,3.39.82,3.66.29.08.63-.35.98-.22.16.06.3.62.46.68.07.03.26,0,.38,0,.78,0,.65.39,0,.75-.05.23-.28.91-.38,1.12.59.48-.16,1.27-.75.75-.82.96-1.32.96-1.5,0-1.08-.56-2.06-2.69-2.26-3.93-.17-1.09.03-3.57,1.51-2.82.2-.98.44-.97.75,0h-.01Z"/>
  <path class="st216" d="M75.7,70.99s.28.23.24.49c-.12.96-.39,1.89-.25,2.89-3.22-1.52-.24,2.91-1.87,4.5-.11.33-.23.32-.38,0-.33-.07-.32-.2,0-.38l-.76-1.57c-.94-.5-1.44-1.1-1.49-1.81.75-.45,1.95-1.6,2.62-2.25.55-.12.92-.49,1.12-1.12-.04-.23.03-.51,0-.75.07.07.54-.04.75,0h.02Z"/>
  <path class="st283" d="M71.2,53.74v.38c-.67.22-1.26,1.63-1.5,1.88.52.67-.03,1.23-.75.75-.06.06-1.27.8-1.5.75-.2-.11-.19-.24,0-.38-.72-.94,1.2-3.51,2.25-2.62.21-1.06.66-1.61,1.5-.75h0Z"/>
  <path class="st42" d="M71.2,75.11c1.53,1.75,2.19.65,2.25,3.38-.11.33-.23.32-.38,0-.78-.32-1.98-1.42-1.88-2.25-.35.1-.47-.03-.38-.38-.33-.11-.32-.23,0-.38.08-.02.22-.28.38-.38h.01Z"/>
  <path class="st289" d="M70.83,75.49v.38c.13.62-.55,1-1.12,1.12.17.6-.38,1.4-1.12,1.12-1.27.25-.96-1.82.38-1.88.08-.14.54-.29.75-.75.34-.06.83.08,1.12,0h-.01Z"/>
  <path class="st92" d="M69.7,55.99c.98-.36.76.84.38,1.5-.47-.19-1.38.47-1.12-.75.16-.15.57-.57.75-.75h-.01Z"/>
  <path class="st103" d="M73.83,72.87c.33-.32.5-.97,1.12-1.12.19,1.01,0,1.73-1.12,1.12Z"/>
  <path class="st34" d="M70.07,73.61c.58-.03,1.44-.83,1.13.18-.11.36-.84.3-1.13.57.05-.22-.03-.51,0-.75Z"/>
  <path class="st249" d="M81.7,36.49c-.07.6-.41,1.23-.38,1.87h-.37c-.03-.25.02-.5,0-.75-.03-.36-.02-.76,0-1.12.2-.01.65-.05.75,0Z"/>
  <path class="st7" d="M73.45,49.99v.38c-.73,1.18-1.78,2.1-2.25,3.38-.59.08-1.04.41-1.5.75-1.15-.06-.95-1,0-1.5-.31-.92,1.29-2.23,2.25-2.25.14-.6,1.07-1.24,1.5-.75h0Z"/>
  <path class="st9" d="M62.95,43.99c.93.09,7.24.28,7.5,0,.11-.11-.08-1.15,0-1.51,2.6-.58.42,1.89,3,1.88v-1.13c.51-.21.36,1.54,1.13.74.05-.06-.3-1.03-.37-1.5h.38c.8-.47.92-.22.38.75l.35.25c-.35.92-.22,1.59.4,2-.19.16.53.54-.75.75v2.25c-.18.14-.52.26-.75.38-1.44-.34-.55-4,.75-2.62-.81-.28-1.43.5-1.86,2.32l-1.52,1.43c-.04.77-.71,1.26-2.02,1.46-.52.91-1.1,1.17-1.73.79-.33-3.27-.7-1.67-2.26-2.43-.54-.26-.57-1.23-1.01-1.33-.96-.22-1.97.52-1.98-1.49-1.13-.33-.41-2.49.38-3h-.02Z"/>
  <path class="st290" d="M74.2,48.87c-.16,1.4-.4.94-.75,1.5v-.38c-.77,0-.54-.31,0-.75-.25-.73.13-.87.75-.38h0Z"/>
  <path class="st60" d="M77.2,40.99v1.5c.25.03.51-.03.75,0-.22.68-.34,1.25-.75,1.88-.48.72-1.22.89-1.5,1.12-.66-.22-.8-.91-.41-2.06l-.34-.19-.38-.75c.57-2.26.65-1.01,2.62-1.5h.01Z"/>
  <path class="st199" d="M74.95,79.99c.06.04.96-.53,1.12-.37-.9,1.63.15.92.38,1.12.38.34-.02,1.43,0,1.5-.11.23-.24.22-.38,0-.15,1.03-.88,0-.75-.75-.42-.18-.83-.82-.38-1.12-.22-.11-.21-.24,0-.38h.01Z"/>
  <path class="st107" d="M81.32,67.61c.12.15-.07,1.13,0,1.5l.75.37-1.87.38c-.17-.17.42-3.16,1.12-2.25Z"/>
  <path class="st203" d="M74.2,79.24c1.05.56.7.71.75.75v.38c-.38.6-1.56-.83-.75-1.12h0Z"/>
  <path class="st207" d="M74.2,79.24c0,.55.21.96.75,1.12.25.33.24.8.38,1.12-.11.33-.23.32-.38,0-.42.47-.45.24-.38-.38-.48.55-.71.3-.38-.38-.41-.09-.66-.34-.75-.75-.55-.36-.55-.77,0-1.12h.38c.13.1.25.31.38.38h0Z"/>
  <path class="st280" d="M44.2,95.37l-1.12,1.12c.29-.86-2.4-3.54-.19-3,.47.11-.09,1.02.38,1.13.69-.29.23-3.82.01-4.14-.59-.89-4.37-1.68-5.08-.74.5.04,1.88-.32,1.87.37l-2.25.38c-.06-.05.26-.6.37-.75-.4-.03-1.49.17-1.5-.19l1.5-.93-3-.75c1.35,1.68.39.84.08,1.18-.37.41.43,1.32.3,1.43-.98.9-1.78-2.88,0-3.37,1.32.94,4,.96,5.52.46,2.3-.76,4.66-4.77,6.85-6.09-1.35,4.6-2.71,9.18-3.75,13.87v.02Z"/>
  <path class="st224" d="M50.95,83.37c.92,1.72.65-.05,1.31-.37.62,1.59.2.29.93,0-.59,1.44-.11,2.43-.03,3.59.01.21-1.02-.02-.72.71.39.93,1.55.18,2.24.2-.42.66-1.57,1.33-1.79,2.14-.23.86.1,1.77-.07,2.47-.05.19-2.25,1.45-1.13,2.51-.75.75-1.48,1.5-2.25,2.25-1.61-1.05-2.8,2.72-2.62-.75,1.09.49,2.5-.37,2.92-1.39.12-.3.35-1.34-.29-1.23l-1.88,1.87c.39-1.94,1.97-1.48,1.13-3.75l1.12,1.5c.35-.73-1.23-2.88-1.12-3,.64-.69,1.15,1.38,1.69,1.49s1.33-.82.75-1.12l-.94.75.37-3.37-1.87,1.12c.76-1.86,1.48-3.84,2.25-5.62h0Z"/>
  <path class="st237" d="M50.95,77.74c.91-.67,2.14.6,1.5,1.5,1.06-.14,1.1-.05.38.75-2.85,0-1.38-.2-2.52-1.77-1.3-1.78-2.08-.71-2.73-1.4-.55-.58-.38-1.38-.37-2.08h.38c1.13-.07,2.93,1.77,3.38,3h-.02Z"/>
  <path class="st177" d="M47.95,90.87c.91.75-.51,2.99-.38,1.12.12-.33.21-.7.38-1.12Z"/>
  <path class="st108" d="M94.83,112.62c1.04.18,2.32-1.34,3-.38"/>
  <polygon class="st186" points="95.95 95.74 95.95 96.49 93.7 96.11 93.7 95.74 95.95 95.74"/>
  <path class="st241" d="M37.45,103.24c.78-.68,1.63-.32,2.62-.37v.37c-.86-.05-1.76.08-2.62,0Z"/>
  <path class="st41" d="M60.7,71.74c.99.15.95.44,0,.75l.16.51c1.22,2.15.66,3.8-.59,6.05,1.03,0,1.67.33,1.93.94,2.07.94,2.32,1.94.75,3l-2.25,2.25c.89.96.06,1.93-1.12,1.5-.47.3-.85.68-1.12,1.12-.13.12-.25.25-.38.38-2.13-1.93,1.56-1.84,1.87-3.75-2.24-.29-.98.39-1.48.92-.4.42-1.31.6-1.65.93-.53.51.19,1.42-.99,1.15-.1-1.42,1.64-2.04,1.86-3.19.28-1.44-.25-2.74-.33-4.08-.03-.44.41-1.01.36-1.49-.02-.14-.65.06-.77-1.74.39-.47.64-1.27,0-2.25-1.04-.44.38-2,.75-.75.22-.96.8-1.9,1.76-2.83l.49.21c.54-.13.94-.22.75.38h0Z"/>
  <path class="st102" d="M55.83,75.11c1.45,1.84-.89,1.96-1.12,3.38-.21.72-.54.71-.75,0-.85-.42-.64-1.33.26-1.46.02-.77.38-1.72,1.24-1.54,0-.25.13-.37.38-.38h0Z"/>
  <path class="st22" d="M53.95,78.49c.25-.02.5.02.75,0-.06.37.09,1.42,0,1.5-.07.06-1.48,0-1.88,0-.11-.25-.21-.53-.38-.75.06-1.02.75-1.79,1.5-.75h0Z"/>
  <path class="st97" d="M57.7,72.49c.64-.12.53,1.25,0,1.5-.23.03-.68-.07-.75,0-.06.06.02.52,0,.75-.22,0-.59-.05-.75,0-.39.07-.39-.18,0-.75-.6-1,.45-1.87,1.5-1.5Z"/>
  <path class="st56" d="M56.95,74.74c.25,0,.5-.02.75,0-.14.91.55,2.55-.75,2.25-.05-.67-.07-1.6,0-2.25Z"/>
  <path class="st248" d="M56.2,73.99v.75c-.18.05-.26.27-.38.38-.12.11-.26.25-.38.38-.63.13-.63-.12,0-.75-.65-.84-.19-1.23.75-.75h0Z"/>
  <path class="st124" d="M86.95,108.49c0-1,0-2,0-3,.66.72.59,2.44,0,3Z"/>
  <path class="st26" d="M77.95,102.49c.95-.78,2.04.92,1.5,1.88.34.78.05,1.03-.75,1.12-.42.22-1.28-.27-1.12-.75-.09-.06-.29.06-.38,0-.92-.65-1.42-1.4-1.5-2.25.21-.42.77-.82,1.12-.38.36-1.08,1-.67,1.12.38h.01Z"/>
  <path class="st89" d="M75.7,102.49c.55.56,1.37,1.45,1.5,2.25-.06-.04-.37.06-.64-.11-.25-.16-1.7-1.77-1.61-2.14v-.38c.67-.75.91-.62.75.38Z"/>
  <path class="st217" d="M78.7,105.49c1.01-.36,1.24.11.38.75-.11.33-.23.32-.38,0-.41-.2-1.14-1.06-1.5-.75.13-.09.23-.57.38-.75.37.24.8.48,1.12.75Z"/>
  <path class="st100" d="M59.57,86.74c1.43-1.15,4.42,2.33,3.75,3.75h-.38c-.25,0-.52-.04-.75,0-.31-2.51-2.44-1.8-2.62-3.38-.34-.1-.33-.22,0-.38h0Z"/>
  <path class="st49" d="M59.57,86.74s0,.27,0,.38c-.34.27-.82.47-1.12.75-.15-1.11.82-.89,1.12-1.12h0Z"/>
  <path class="st19" d="M69.7,96.49c1.09-.51,2.45,1.27,1.88,2.25-.98.22-2.43-1.42-2.62-2.25v-.38c.59-.81.88-.61.75.38h-.01Z"/>
  <path class="st117" d="M81.7,108.49c.13-.33.25-.33.38,0,1.54.62,2.04,1.37,1.5,2.25-.34-.06-.76.04-1.12,0-.23-.34.46-1.09-1.5-.75l.74-.74c-.56-.18-.92-.5-1.5-.75-.15-1.14-1.42-1.15-1.5-2.25h.38c1.08-.36,1.96.39,2.62,2.25h0Z"/>
  <path class="st225" d="M64.45,82.24c.11-.33.23-.32.38,0,.65.48.54,1.24-.32,2.28.75.37.75,1.05.69,1.76.94.53,2.93,2.24,1.5,2.7.49-.82,1.68-1.07,3.57-.75,1.58-.29,2.64-.04,3.18.75-2.68-2,1.77-5.18,1.5-.59l.81.52c.92-.91,1.98-.95,1.82.44,1.01,2.35.55,3.23-1.37,2.64-2.23-.02-4.4-.03-6.51-.02-.88-.86-1.2-.93-.97-.21l-.9.21c-.09.33-.22.32-.38,0-.87.68-2,.18-3.38-1.5-.23-.03-.51,0-.75,0-.59-.69-1.08-1.62-1.67-2.27-.2-.22-1.75-1.68-2.08-1.48.85-.64.82-1.05,1.12-1.5.76-.91,1.63-1.66,2.62-2.25.16-.88.6-2.16,1.12-.75l.02.02Z"/>
  <path class="st85" d="M64.07,90.49c1.37.18,1.92,1.24,3.38,1.5.33.11.32.23,0,.38.47.53.81,1.61,0,1.88-1.11-1.11-2.94-2.12-3.38-3.75h0Z"/>
  <path class="st78" d="M68.2,94.24c.41-1.07,1.18-1.15,1.5,0,.79-.81,1.7.21,1.12,1.12-.1.71-.41,1.02-1.12,1.12-.16-.16-.6-.22-.75-.38-.5-.5-1-1.38-1.5-1.88.18-.98.45-.93.75,0v.02Z"/>
  <path class="st136" d="M84.7,108.49c-.02.87.02,1.75,0,2.62-.38-.13-.71-.3-1.12-.37l-1.5-2.25c-.03-1.27,1.89-.67,1.8.27-.04.4-1.5-.58.08-1.4.34-.4.59-.03.75,1.12h-.01Z"/>
  <path class="st6" d="M84.7,104.74c.02,1.12,0,2.25,0,3.38v.38l-.75-1.12c-.77-.48-.71-1.35,0-1.88-1.33,0-.75-1.66,0-2.25.45.08.7.58.75,1.5h0Z"/>
  <path class="st58" d="M70.83,95.37c1.15-.59,2.29,1.32,1.88,2.25,1.53.36,2.53,1.24,3,2.62.51-.28.97.25.75.75.31.11.31.23,0,.38.09.43-.16.8-.75,1.12-.15-.16-.6-.22-.75-.38-.12-.13-.25-.25-.38-.38-.99-1.01-2.01-2-3-3-.66-.67-1.2-1.57-1.88-2.25-.03-.76.38-1.16,1.12-1.12h.01Z"/>
  <path class="st103" d="M89.91,82.58"/>
  <path class="st103" d="M98.93,85.59c-.63.77-4.49.73-3.36-1.85,1.16-.45,4.67.26,3.36,1.85Z"/>
  <path class="st94" d="M79.45,87.49c1.35-.11.51,1.33.85,2.16.56,1.38,1.96,2.48,2.15,4.59-.33.89-.83.27-1.5-1.88-1.07.39-2.25-3.78-1.5-4.12-.28-.35-.28-.6,0-.75Z"/>
  <path class="st161" d="M80.95,92.37c.03.05.39.11.56.39.35.59-.14,1.68.94,1.48.1,1.11.34,2.83.75,3.75.33.76.33,1.26,0,1.5-.27.17-.57.26-.87.14-.38-.15-1.57-5.68-1.38-6.51-.71,0-.73-.58,0-.75Z"/>
  <path class="st179" d="M83.95,99.49s.65-.17.76.24c.25.96-.03,3.73,0,5.01-.25-.42-.61-1.06-.75-1.5-.59.09-.71-1.05-.38-1.5-.24-.62-.2-1.91.38-2.25-.19.99-.35.92-.75,0v-1.5c.11.24.65,1.34.75,1.5h0Z"/>
  <path class="st16" d="M77.2,83.37c.88,1.77,1.96,2.13,2.25,4.12.03.24-.04.52,0,.75-.39.68-.64.43-.75-.75-.86-.9-1.36-2.03-1.5-3.38-.19-.36-.19-.61,0-.75h0Z"/>
  <rect class="st109" x="80.2" y="84.49" width=".75" height="2.25"/>
  <path class="st93" d="M77.2,83.37v.75c-1.16-.43-1.53-1.06-1.12-1.88h.38c.1.35.57.75.75,1.12h-.01Z"/>
  <path class="st272" d="M45.7,57.49c.95.2.83,1.2-.38,3,.89.49.58,1.39-.38,1.5.33.09.32.22,0,.38-.22,1.38-.35,2.75-.38,4.12-.11.33-.23.32-.38,0-.59.14-.35-1.47-.34-1.39.05.75.1,1.64-.41,2.14.33.07.32.2,0,.38-.79-2.12-.36-4.94,0-7.12.01-.08.58-.69.75-1.5.42-.39,1.19-1.09,1.5-1.5h.02Z"/>
  <path class="st39" d="M50.95,52.24c-.45,1.55-1.71.97-1.5,3-1.19.82-2.25,1.8-3.17,2.95l-.58-.7c.69-.92,1.28-2.04,2.25-3,.05-.05.43.06.63-.11.84-.76.75-1.8,2.37-2.14Z"/>
  <path class="st154" d="M44.95,69.87c1.05-.1.06,1.19,0,1.12-.12-.14.58-1.68,1.12-.75.5-.53.73-.3.38.38.86-.56,1.13-.19.75.75,1.08-.13,1.28.18.75,1.12-.36.36,0,.83.11.66.16-.24,4.57,3.5,2.89,3.84.72.11.68.41,0,.75-.94-.98-2.47-2.02-3.38-3-1.34-1.46-2.75-2.94-3.38-4.88-.98-1.02,1.09-1.6.75,0h0Z"/>
  <path class="st71" d="M44.95,67.24c.99.17.94.45,0,.75.62.24.74.49.38.75.24.9.12,1.27-.38,1.12-.3-.77-.7,0-.75,0-.22-.05-.5-.27-.75-.38-.02-.24,0-.5,0-.75v-1.5c.1-.34.34-.6.75-.75h.38c.14.14.27.39.38.75h0Z"/>
  <path class="st260" d="M62.95,43.99c.37.95-.38,2.39-.38,3-.47.12-1.79-.29-1.88.25-.12.66.47,1.47-.74,1.25.56-1.93-.97-2.15-.75-3.75.52.06,1.14-.12,1.63,0,.45.1,0,.92.62.76v-1.87c.58-.21,1.17.34,1.5.37h0Z"/>
  <path class="st126" d="M62.2,28.99c.03.4-.12,1.31.04,1.48.34.34,1.71-.75.71,1.52-.17.86-1.29.61-1.5.75-.41.13-.95-1.45-.41-1.07.29.2-.15.4-.34-.43v-.5c.9-.39.86-.81.75-1.75.24-.02.52.04.75,0Z"/>
  <path class="st121" d="M60.7,31.24c.25.02.5-.02.75,0v1.5c-.31.21.38.11-1.12.75h-.38c-.24-1.06.95-.4.75-1.31-.07-.33-1.13-.14-.75-.94.25.02.5-.02.75,0Z"/>
  <path class="st73" d="M59.95,33.49h.38c-.83.35-1.41,1.2-2.25,0,.12.02.25,0,.38,0,.5.03,1-.02,1.5,0h-.01Z"/>
  <path class="st77" d="M64.45,52.99c.06-.71.11-3.06,1.16-2,.58.58.46,1.19,1.84,1.25,1,.12.95.46,0,.75-.55.91-.55,1.16,0,.75.12-1.07,1.46-1.55,2.25-.75v1.5c-1.3.98-1.4,1.77-2.25,2.62-.22.66-1.25,1.78-1.88,1.12-.53.53-.78.53-.75,0-.7.18-1.68.1-1.88-.75-.85.13-.85-.62,0-2.25.04-.04-.12-.52.07-.67.35-.27,1.29.04,1.43-.08.08-.07-.03-1.13,0-1.5h.01Z"/>
  <path class="st134" d="M71.57,49.99c.12-.32.25-.32.38,0,.64-.12.64.13,0,.75-.04.04.05.39-.15.61-.22.25-.63,0-.6.32.03.43.91-.14.75.56-1.06-.24-1.37.32-2.25.75-.8.4-1.83.56-2.25.75-.75.04-.61-.45,0-.75v-.75c.12,0,.28.03.38,0,.3-.08,1.02-1.25,1.24-1.38.51-.3,2-.63,2.51-.87h-.01Z"/>
  <path class="st265" d="M53.2,56.74c.78-.78,2.8-1.3,2.25-3,.45-.56,2.32,2.21,2.51,2.26.92.23,2.45-.17,3.49,0,1.58.36.56,2.22-.9,2.29.58,1.12.62,1.85.15,2.21-.07,1.01-.44.96-.75,0-.18.63-.28.96-.75.38-.19.47-.52,1.11-.98,1.91-2.03,0-3.73.05-5.71.34-.33.05-.6-.1-.81-.37-.36-.05-.36-.3,0-.75-2-1.54-.33-1.94,1.57-1.89.05,0-.91.14-.82-.36.28-.89-.69-.61-.75-.94-.1-.58.75-.85,1.22-1.34.27-.29.25-.69.28-.72v-.02Z"/>
  <path class="st167" d="M50.95,55.24c.57-.47.77-.25.38.38,1.06.33,2.18.21,1.88,1.12-.62-.37-2.13.52-2.23,1.03-.46,2.2-.06,1.91,1.48,1.97.71.03,1.76-.41,1.5.75-.46.09-2.12-.12-2.25,0-.06.06.01,1.16,0,1.5-.26,1.39-.76,1.89-1.5,1.5-.26.98-.42.97-.75,0-.61-1.24-.7-3.31,0-4.5.19-.74.12-2.17,0-3-1.02-.12-.96-.43,0-.75.46.02,1.12-.09,1.5,0h0Z"/>
  <path class="st25" d="M62.95,55.24c3.44,1.75.46,1.26.07,1.58-.19.15-.02.62-.07.67.02.51-.23.77-.75.75l-.27.74c-.43-1.17,1.29,2.8-1.23,1.51-.13-1.04-.66-.66-.74-1.01-.69-2.97,1.19-1.7,1.5-1.99.13-.13-.13-1.2,0-1.5.03-.08,1.36-.63,1.5-.75h0Z"/>
  <path class="st0" d="M52.07,54.49c.32-.07,1.09-.42,1.12-.37.85,1.22-1.09,1.13-1.87,1.5-.14-.04-.28-.35-.38-.38-.2-1.2.4-.59,1.12-.75h0Z"/>
  <path class="st206" d="M66.7,58.99c.86-.05,1.36.2,1.5.75-.06.2-.51.36-.75.38v.36c1.92.14.13,2.84-.02,3.92-.18,1.31-.03,3.65.02,5.08h-.75c-.39-.34-1.37-2.82-1.46-3.45-.08-.55-.11-1.08,0-1.63.77-1.57.76-2.62-.03-3.17,2.42,1.45-2.11,3.95-.75.75-1-.44.34-2.25.75-.75-1.05-.7.4-3.12,1.5-2.25h0Z"/>
  <path class="st132" d="M67.45,57.49c.05.21-.07.67,0,.75,0,.49-.26.74-.75.75-1.15,1.09-1.2-.13-1.5,2.25-.53.17-.91-.41-.75.75-.12,1-.4.92-.75,0-.39.07-.39-.18,0-.75-.47-1.09.15-2.09,1.88-3,.44-.46,1.56-.8,1.88-1.12v.38h-.01Z"/>
  <path class="st284" d="M67.45,58.24c.07.08,1.31-.18.75,1.5-.94-.05-1.73.38-1.5-.75.08-.08-.21-1.03.75-.75Z"/>
  <path class="st86" d="M69.7,58.24c0,.25.02.5,0,.75-.19,2.24-1.83-.79,0-.75Z"/>
  <path class="st52" d="M65.2,61.24c1.12-.37.46-.81,1.5-.75.27,1.93-.9,3.13-.78,5.1.06,1.01,1.25,1.48.78,3.9,0,.06-.57.46-.67.99-.61,3.05,1.14,3.29,1.42,5.76.77.08.74.46,0,.75-.74.51-1.24,1.26-1.5,2.25.64.39-.24,1.12-.75,1.5-.69,1.22-2.26.51-2.25-.75-.43-.49-.25-.9.55-1.21-.37-1.94-.45-3.91-.22-5.89l.8-.4c-1.4-.95-2.02-2.18-2.62-3.75-.71-.5.3-1.65.75-.75.21-.72.54-.71.75,0,.62-1.27.55-2.59,0-3-.42-.33-.55-.62,0-.75.4-.46.53-1.13.38-2.03l.37-.22c.21.04.69-.07.75,0,.08.08-.09.67,0,.75.94.79.69-1.02.75-1.5h-.01Z"/>
  <path class="st79" d="M68.95,76.24c-.48.81-1.16,1.26-.38,1.88.53.54.3.78-.38.38-.13.32-.25.32-.38,0-.12.18-.24.17-.38,0-.73-.47-.73-1.03,0-1.5,0-.24.03-.51,0-.75h1.52Z"/>
  <path class="st74" d="M73.45,78.49v1.5c-1.33,1.45-1.63-.54-.75-1.5.12-.32.25-.32.38,0h.38-.01Z"/>
  <path class="st295" d="M73.07,78.49c-.12-.02-.26.03-.38,0-.15,1-.39.93-.75,0-.65.08-1.97-.62-1.12-1.5-.65-.22-.24-.84.38-.75.72.89,1.81,1.1,1.88,2.25h-.01Z"/>
  <path class="st28" d="M71.2,76.24l-.38.75c-.08.98-.38.9-.75,0-.11.33-.23.32-.38,0,.34-.36.5-.95,1.12-1.12.12.12.26.24.38.38h.01Z"/>
  <path class="st150" d="M70.07,76.99c1.01.41.71,1.41-.38,1.5-.76.89-1.17.82-1.12-.38.1-.07.94-.93,1.12-1.12h.38Z"/>
  <path class="st9" d="M73.45,49.24v.75c-.23-.04-1.44.69-1.5.75v-.75c.11-.82.88-1.59,1.5-.75Z"/>
  <path class="st193" d="M71.57,49.99c.59-2,2.31-3.07,1.88-5.25l1.5,1.5c-.17.03-.7-.06-.75,0-.13.18.06,2.04,0,2.63-.25.12-.51.27-.75.38-.63.29-1.08.56-1.5.75-.1.05-.27-.05-.38,0h0Z"/>
  <path class="st291" d="M75.7,45.49c-1.65.45-1.23-1.05-.75-2.25.09-.22.45-.41.38-.75h.37v3Z"/>
  <path class="st266" d="M75.33,81.49c.49,1.18.71.69.75.75.37.61.76,1.26,1.12,1.88.5.84,1.37,2.45,1.5,3.38.3.37.3.62,0,.75-1.51-.13-2.25-2.05-2.64-3.6-1.44-.37-1.72-1.98-1.11-3.15h.38Z"/>
  <path class="st166" d="M69.7,78.49c.48-1.23,1.38-.93,1.89.22l.36-.22c.1.07.52-.05.75,0v1.5c.24.03.52-.04.75,0,1.32.2.52.46.75.75-.73.51-.85,1.14-.36,1.89l-.39.36c-.34.36-.46.86-.38,1.5,1.08,1.75-3.5.78-3.73.47-.86-1.13-.07-1.96,1.11-1.97,1.12-.36,1.28-2.1,0-1.5-.52.91-.95.63-.75-.38-.61-.19-1.26-.55-1.5-1.12-1.07.06-.53-.91,0-1.5.2-.09.27-.29.38-.38.29.23.76.29,1.12.38Z"/>
  <path class="st138" d="M55.45,74.74v.75c-.54.62-1.21,2.19-1.5,3-.9.09-.66.86-1.5.75-.18-.24-1.12-1.11-1.5-1.5,0-.25.01-.5,0-.75.56-.41.88-.95.95-1.61.5-.44,2.89-1.13,3.55-.64Z"/>
  <path class="st128" d="M60.7,70.99c.43-1.92,2.8-.29,1.5.75.65-.52,1.74-.13,1.88.75-.17,1.07-.21,4.9,0,5.76.11.45.92,0,.76.61l-1.87,1.13c-.14.99-.42.93-.75,0-1.34-.14-1.78.23-2.99-.76-.28-.93.47-.56.72-1.03.09-.18-.03-.67.14-1.09.05-.13.55-.13.61-.38.12-.48.12-2,0-2.49-.08-.35-.84-.08-.76-.81s.68-.79.76-.94c.56-.27,1.06-.52,1.5-.75-.36.57-1.13.56-1.5,0-.21-.02-.51-.3-.75-.38-.31-.82.17-1.03.75-.38h0Z"/>
  <path class="st285" d="M61.45,68.74c.75.74-.02,1.81-.75,2.25-.37.12-.45.19-.75.38-.13.08-1.35,1.14-1.39,1.23-.49,1.1.52,1.18-.86,1.4v-1.5c.32-1.52,1.63-3.43,3-3.75.14-.68.44-.67.75,0h0Z"/>
  <path class="st106" d="M62.95,79.99c.99.14.83,1.15,2.25.75.16.12.16.24,0,.38,0,.42-.25.79-.75,1.12-.75-.19-.78.43-1.12.75h-.38l.75-1.5h-1.5v-1.5c.24.03.51-.03.75,0Z"/>
  <path class="st2" d="M62.95,82.99h.38c-.92.86-1.4,2.08-2.62,2.25.05-.07-.08-.39.11-.64.23-.31,1.73-1.66,2.14-1.61h-.01Z"/>
  <path class="st31" d="M62.2,71.74c.24,1.13-.55.7-1.5.75.07-.13-.05-.53,0-.75.49.06,1.01-.04,1.5,0Z"/>
  <path class="st118" d="M51.7,69.87c.22-1.66,2.4-.7,3,.38.56-.09,1.06-.09,1.5,0,.76-.93,1.26-.93,1.5,0,.91,0,.91.76,0,2.25-.5.47-.88.9-1.5,1.5-.22.22-.54.54-.75.75-.58.58-2.01.51-1.5,2.25-1.4.34-.37-1.37-.94-1.5-1.15-.27.31,2.25-2.06,1.5-.05-1.06-1.62-1.62-2.12-2.39-.22-.33-.08-.9-.14-.98-.03-.04-.47.34-.65.25-.43-.22-1.65-1.6-.09-1.38.09-.33.22-.32.38,0,1.15-.17,1.57.47,1.88,1.5l.85.04c-.37-.7-.27-1.22.28-1.54-.87-.57-.74-2.07.38-2.25-.33-.09-.32-.22,0-.38h-.02Z"/>
  <path class="st84" d="M76.45,100.99c-.86-1.45-.45-3.53,1.08-2,.56-.46,1.46-1.06,1.92-.25.66.58,1.28,1.08,1.88,1.5,1.06-.1,1.13.42.38,1.12v1.12c-.51,1.21-1.01.71-1.5-1.5-.44.62-1.19,1.12-2.25,1.5-.05-.03-1.07-.37-1.12-.38-.74.31-.95-.2-.38-.75,0-.12-.03-.32,0-.38v.02Z"/>
  <path class="st184" d="M80.2,100.99c.86,1.44.86,2.44,0,3,.6.77.58.79-.38.75-.32.16-.44.02-.38-.38-.4-.39-1.16-1.64-1.5-1.88v-1.5c.74.32,1.5,0,2.25,0h.01Z"/>
  <path class="st136" d="M79.83,104.74c1.01-.54,2.35.84,1.88,1.88.58.53.82,1.45,0,1.88-.48-.17-2.05-1.73-2.62-2.25-.03-.03.03-.41-.38-.75,0-.55.21-.96.75-1.12.13.12.25.25.38.38v-.02Z"/>
  <path class="st282" d="M76.83,102.11c-.06,0-.83.68-1.12.38s.3-1.01.75-1.12c0,.18.31.52.38.75h-.01Z"/>
  <path class="st50" d="M83.95,105.49c0,.62.02,1.25,0,1.88s.02,1.25,0,1.87c-.6-.86-1.77-.71-1.87-.75-.11-.04-.26.04-.38,0-.2-.66-.57-1.34,0-1.88.29-.24.67-.24,1.12,0-.39-1.31.24-2.62,1.12-1.12h.01Z"/>
  <path class="st211" d="M66.7,81.11c1.1.28,1.92.35,3,0l.75.38c.99.25.97,1.18,0,1.5,0,1.29-.95.24-.75,1.5,1.14-.28,2.51.87,3.37,0-.21-.75-.09-1.25.38-1.5-.05-1.34.33-1.97,1.12-1.88.04.09.3.2.38.38.27.61.12.65.63,1.59.09.17-.29.63-.26.65.08.07.69-.17,1.15.25.61.56.83,1.94.73,2.76l.74-.38.75,1.88c.75.35.44.9-.38.75-.12.3-.25.3-.38,0l-.38.38c-2.05-1.37-.25,1.39-1.87,1.13l-.75-1.5-.75,1.5v-3.75c-1.34-.31-.58,1.47-.75,2.25h-6.75c-.07,0,.31-1.15-.74-.37.46-1.1-1.22-1.59-1.39-1.98-.21-.48-.04-1.31-.11-1.39-.29-.31-2.01.73-1.5-1.13,1.14.91,1.47-1.42,1.87-1.87-.05-.62,1.36-1.63,1.88-1.12v-.03Z"/>
  <path class="st135" d="M77.95,88.99c.29.78.54,1.03.75.75.44-2.24,2,2.95,1.5,3.75-.45,1.33-.95,1.58-1.5.75-.42.7-1.61-.29-2.05-.81l-4.81.04c-.37-.08-.59-.33-.64-.73-.21.72-.54.72-.75,0-.21.6-.68.73-.75,0-.72-.21-.71-.54,0-.75.11-.03.26-.57.67-.73s1.04.15,1.5-.12c.18-.1-.07-.57.27-.66.84-.2.37.62.81.75,1.47.42,3.26-.21,4.62.38,0-.92-.49-1.37,0-2.25.12-.21.08-.3.38-.38h0Z"/>
  <path class="st173" d="M68.2,79.99c.29,1.03-.6,1.8-1.5,1.12-.26.19-1.8,1.04-1.88,1.12h-.38c-.16-.72.35-.77.75-1.12.5-1.2,1.56-1.98,2.62-2.62.1-.05.27.05.38,0v1.5h.01Z"/>
  <path class="st75" d="M69.7,91.99v.75c.52.31.4.69,0,1.12.33.11.32.23,0,.38-.29-.1-1.07.03-1.5,0-.27-.53-.52-1.15-.75-1.88v-.38c.12.02.25,0,.38,0,.28-1,1.57-.99,1.88,0h-.01Z"/>
  <path class="st85" d="M67.83,91.99c.31-.33.23-1.42.59-1.52,1.6-.46,1.26.4,1.29,1.52-.3.09-1.46.04-1.88,0h0Z"/>
  <path class="st256" d="M62.95,88.99v-1.5c1.49,0,1.47,1.5,0,1.5Z"/>
  <path class="st275" d="M68.2,94.24c-.16,0-.72.04-.75,0-.13-.17.09-1.45,0-1.88.71.34,1.3,1.18.75,1.88Z"/>
  <path class="st15" d="M71.2,92.74c.46.33.92.65,1.39.93,2.65-.61,4.68-.17,6.11,1.32.95-1.14,1.42-.4,1.88.75,1,.17,1.61,2.48.75,3-.12,1.74-1.89,1.43-1.12,0-.91-2.44-1.73-2.87-2.47-1.28-.73.29-3.83-.03-4.28-.97-.15.58-.4.95-.75,1.12-.75-.75-1.35-1.69-1.88-2.25-.18-.19-1.05-1.1-1.12-1.12v-.38c.15-.56.4-.93.75-1.12h.75-.01Z"/>
  <path class="st133" d="M83.95,103.24v2.25c-1.1-.1-.86.65-1.12,1.12-1.12.04-1.96-1.96-.75-2.62.66-.57.67-.82.47-1.74l.66-.51c.11-.33.23-.32.38,0-.03.96.19.91.38,1.5h-.02Z"/>
  <path class="st171" d="M75.7,98.37c-.34-.86,2.86-1.33,3.3-1.18.95.33,1.28,1.05.45,1.56.12-1,.4-.92.75,0,.56.43.28,1.48,1.12,0,1.12.14,1.01,1.12,0,1.5-2.92.49-1.48-1.01-1.88-1.5-.3-.37-1.68,1.36-2.25,1.13l-.75-1.13c-.56,1.34.74,1.56.75,1.69.03.29-.61.27-.75.56-.42-.08-.55-.59-.75-.75-.89-1.06-.89-1.68,0-1.88h.01Z"/>
  <path class="st149" d="M73.45,96.49c1.25.42,2,1.04,2.25,1.88v1.88c-1.13-.93-1.93-1.56-3-2.62,0-.53.2-1,.75-1.12v-.02Z"/>
  <path class="st162" d="M79.45,88.24c.32,1.83.59,2.49,1.5,4.12-.04.23.06.56,0,.75.29.97.16,1.6-.38,1.88-1.34.27-1.33-.77-.38-1.5-.23-1.03-.68-.72-.74-1-.17-.78.18-1.79,0-2.5-.11-.42-.71-.2-.76-.24-.53.24-.59-.32-.38-.75.08-.24.34-.53.38-.75.03-.2.03-.55,0-.75l.75.75h.01Z"/>
  <path class="st158" d="M83.2,99.49c.61.55.33,1.52,0,2.25-.05,1.39.55,2.61-1.12,2.25-.39-.03-.2-.44,0-.75-.27-.54-.39-1.16-.38-1.88-.05-.28-.3-.66-.38-1.12s.08-1.04,0-1.5c-.18-1.1-.62-2.04-.75-3-.46-.48-.46-.73,0-.75,0-1.04.12-1.06.38-1.88.83,1.13,1.36,5.8,2.25,6.38Z"/>
  <path class="st6" d="M83.95,99.49c.15.18-.36,1.7-.38,2.25h-.38c.03-.75,0-1.5,0-2.25.14.09.68-.09.75,0h.01Z"/>
  <path class="st261" d="M49.45,55.24c.02.22-.06.69,0,.75.2.95-.55,1.7-2.25,2.25.54.4.42.53-.38.38.6.89.3,1.33-.75,1.12.25.86.07,1.21-.75.75-.62-.3-.33-1.28-.37-1.88l.74.38c.09-.4-.12-1.27,0-1.5.02-.04.48.05.63-.13,1.04-1.28,1.47-2.21,3.12-2.12h.01Z"/>
  <path class="st271" d="M45.7,61.99l.72.36.03,4.14c.99.16,1.19,1.33.38,1.88-.3,1.35-1.24.34-1.88-.38-.04-.23.02-.51,0-.75-.45-1.53-.35-3.31,0-4.88,0-.12-.02-.25,0-.38.24-.87.48-.89.75,0h0Z"/>
  <path class="st245" d="M43.45,67.24c.01-1.24.06-2.5,0-3.75,1.44-.3.5,2.18.75,3,.09.64-.09.89-.75.75Z"/>
  <path class="st35" d="M46.45,60.49c1,.5.3,3.06-.75,1.5h-.75c.05-.39.22-1.17.38-1.5.1-.23.61-.5.75-.75.97-.42,1.14.07.38.75h0Z"/>
  <path class="st45" d="M44.95,67.24c-.36-.1-.35-.43-.38-.75-.09-1.2-.24-3.21.38-4.12-.11,1.38-.12,3.5,0,4.88h0Z"/>
  <path class="st151" d="M49.45,58.99c.03,1.47-.01,2.9,0,4.5.63.9.54,8.85-.24,9.09-.3.09-.6.03-.89-.09-.12,0-.25.02-.38,0-.27-.35-.46-.79-.75-1.12.01-.69.26-1.31.75-1.88-.66-.42-.99-1.95,0-2.25.29-2.6.41-5.22.34-7.85-.46-.84-.1-.98.79-1.15.53-1.18,1.27-.06.38.75Z"/>
  <path class="st3" d="M46.83,68.37c.78-.35.99.71.38,1.12.68.6.2,1.72-.75,1.12-.1-.14-.3-.25-.38-.38-.68.16-.93-.34-.75-1.5-.08-.24-.34-.52-.38-.75l1.88.38h0Z"/>
  <path class="st54" d="M47.95,69.49c.25,0,.5,0,.75,0v.37c-1.49-.18-.03,1.86-1.5,1.51-.19-.23-.47-.36-.75-.75.4-.14.65-1.07.75-1.12.05-1.03.41-.96.75,0h0Z"/>
  <path class="st219" d="M46.07,70.24l-1.12.75c-.07-.33.09-.88,0-1.12l.38-1.12c.15.44.49,1.09.75,1.5h0Z"/>
  <path class="st25" d="M65.57,58.24c-.38.4-1.48,2.54-1.88,3-.11.75-.36,1-.75.75-.28.66-1.05,1.67-1.5.75-1.07-.95-.11-2.23,1.12-3-.53-1.46,1.27-1.58,2.25-1.5.13-.07.53.05.75,0h.01Z"/>
  <path class="st18" d="M62.95,57.49c.72-.07,1.63-.09,1.88.75-.22.12-.4.64-.66.77-.66.32-1.23-.26-1.59.73-.68.31-1.13-1.33-.38-1.5.05-.05-.06-.42.13-.62s.57-.09.62-.13Z"/>
  <path class="st208" d="M67.45,52.99v.75s.14.45-.29.73c-2.16,1.37-1.05-1.57.29-1.48Z"/>
  <path class="st200" d="M62.2,58.24c-.29.69.26,1.13.38,1.5.83,2.75-.51.94-1.13,1.5-.06.05,0,1.15,0,1.5.69-.16.49,3.39.33,3.67-.34.59-1,.87-1.08.08-.24-.27-.49-.27-.75,0,.4,1.3-1.08,1.13-1.47-.27l-1.61-.51c-.77.93-1.96,1.19-3.58.76-.32,1.32-.84,2.45-1.58,3.39-.02.12,0,.25,0,.38-.14.65-.61.99-1.03.52-.32-.36-.39-7.73,1.03-8.02,1.63-1.29,4.55-.33,6.54-.72.4-.08.09-.82.28-1.06s.56-.03.68-.09l.38.1c-.09.9.04,1.49.37,1.77.25-.85.5-1.6.75-2.25,1.94-.54.41-1.74.8-2.19.15-.17.64,0,.7-.06h0Z"/>
  <path class="st131" d="M51.7,62.74c-.12,2.51-.86,3.76-.75,6.21.03.72-.39,1.5.75,1.29-.06.72-.41,1.33-.38,2.25-.03,1.08-.88,1.01-1.12,0-.18-.02-.35-.05-.5-.14-.38-.22.03-7.6.1-8.72,0-.05.18-.1.4-.14.03-.1,1.23-1.27,1.5-1.5,0,.25.01.5,0,.75Z"/>
  <path class="st204" d="M59.95,60.49c.64,0,.54,1.95,0,2.25-.25,0-.5,0-.75,0v-1.88c.24-.11.37-.28.75-.38h0Z"/>
  <path class="st242" d="M60.7,60.49c.09.71-.05,1.52,0,2.25h-.75v-2.25c.22-.05.54.06.75,0Z"/>
  <path class="st201" d="M50.2,63.49c-.4,1.23.05,7.09,0,9,.9.47.83,1.06,0,1.5-.55-.44-1.58-.55-1.88-1.5,1.84-1.99,1.14-6.24,1.12-9h.76Z"/>
  <path class="st4" d="M49.45,55.99s.51-.1.66.07c.23.27.46,3.61-.66,2.93,0-.19.01-.37,0-.56-.07-.21-.22-.15-.37-.19-.58,1.12-1.11.85-1.88,0,.05-.06-.08-.43.1-.64.41-.45,1.63-1.06,2.15-1.61Z"/>
  <path class="st69" d="M63.7,61.99c0,1.04.41,2.58-.75,2.25-.65,0-.29-.99,0-1.5-.64.11-.64-.14,0-.75.21-.21.6-.57.75-.75v.75Z"/>
  <path class="st99" d="M61.45,68.74c1.73.1,1.4,2.14,1.5,2.25.14.15,1.37-.13,1.5,0,.38.37-.35,1.31-.38,1.5-.51.17-1.43-.41-1.88-.75-.15-.12.26-1.31-1.5-.75-.23-1.11.33-1.4.75-2.25h.01Z"/>
  <path class="st181" d="M67.45,76.99v1.5c-.14.53-1.11,1.35-1.5.75-.52-1.52-.33-2.63,1.5-2.25Z"/>
  <path class="st155" d="M62.95,64.99c.69.4.54,2.49,0,3-.25.02-.5-.02-.75,0-.65-.11-.65-.61,0-1.5-.54-.25-.52-1.58,0-1.88.32-.56.57-.44.75.38Z"/>
  <path class="st70" d="M67.45,78.49c.09-.05.27.05.38,0-.64,1.11-1.7,1.8-2.62,2.62v-.38c-.04-.24.69-1.44.75-1.5.13-.13,1.29-.63,1.5-.75h-.01Z"/>
  <path class="st257" d="M62.95,64.99c.24.07.67-.23.77.22.17.74-.14,1.95-.02,2.78-.25.02-.5-.03-.75,0v-3Z"/>
  <path class="st244" d="M62.2,67.99c-.04.06-.19-.37-.75.75-.25,0-.5,0-.75,0-.73.02-.5-.34,0-.75-.39-.78.71-1.57,1.5-1.5-.02.36.08,1.38,0,1.5Z"/>
  <path class="st113" d="M62.95,64.24v.75c-.25-.07-.5-.28-.75-.38-.7-.65-.38-2.19.75-1.88v1.5h0Z"/>
  <path class="st29" d="M70.83,76.99c.09.06,1.04,1.44,1.12,1.5v1.5c-.8-.03-.57-1.23-.81-1.44-.26-.24-1.06.03-1.44-.06l.38-1.5c.22.05.65-.07.75,0Z"/>
  <path class="st264" d="M74.2,80.74c.1.13.32.25.38.38-.69,1.24.25,1.68-1.12,1.88-.08-1.03-.64-.65-.74-1-.41-1.46.27-1.34,1.49-1.25h-.01Z"/>
  <path class="st263" d="M68.2,79.99c.09-.05.42.13.66-.1.07-.06.21-1.38.84-.65.06.07.06,1.62,0,1.87-.32,1.32-2.31,1.58-3,0,.68-.49.72-.65,1.5-1.12Z"/>
  <path class="st188" d="M70.45,81.49c.06-.41-.06-.89,0-1.31.19-1.37,3.67,3.38,0,2.81,0-.5-.13-.57,0-1.5Z"/>
  <path class="st172" d="M73.45,82.99c.05.64.13,1-.38,1.5-.82-1.22-.67-1.35.38-1.5Z"/>
  <path class="st235" d="M60.7,68.74c-.21.49-2.54,3.32-3,3.75v-2.25c-.31-1,1.24-2.32,2.25-1.88.14-.53.38-.83.75-.38-.05.23.07.59,0,.75h0Z"/>
  <path class="st44" d="M51.7,69.87c.09-.62-.15-1.36.01-1.98.07-.27.54-.28.6-.4.21-.47.13-1.11.31-1.38.58-.85,2.07-.08,2.89-.19.75-.1.52-1,1.23-.97.87.04,1.51.77,2.4.46.1.34.08.75.24,1.06.41.76.53.02.56,0,.28-.97.49-.96.75,0,.36.43.11,1.05-.75,1.88-.98.86-1.13,1.23-2.25,1.88-.09.05-.41-.13-.67.09-.09.08-.44,1.51-.83-.09-.45-.18-.95-.18-1.5,0-.03.04-.45-.11-.66.1-.33.35.34,1.31-.84,1.02v-1.68l-1.5.18h0Z"/>
  <path class="st40" d="M54.7,70.24c.14-.17.65-1.45.94-1.5,1.01-.18.38.77.56,1.5-.87.27-.58,2.16-.94,2.25h-.56v-2.25Z"/>
  <path class="st32" d="M51.33,72.49c0,.3.77,1.49.37,2.25-1.82.43-1.42-.68-1.5-.75-.29-.54-.01-1.11,0-1.5h1.13Z"/>
  <path class="st43" d="M80.2,100.99c1.67.03-.13,1.71,1.5,1.5.23.21.24.58,0,.75.74,1.47-.84,2.32-1.5.75.08-.8-.34-2.06,0-3Z"/>
  <path class="st228" d="M82.07,103.24c-.11.33-.23.32-.38,0v-1.88c.11.6.26,1.24.38,1.88Z"/>
  <path class="st115" d="M82.07,103.99c.1.77.3,2,.75,2.62-.42.75-.68.41-1.12,0-.59-.54-1.28-1.29-1.88-1.88-.04-.28.36-.65.38-.75.83.03,1.7.29,1.5-.75h.38c.04.23-.03.51,0,.75h-.01Z"/>
  <path class="st159" d="M78.7,89.74c-.04,1.66-1.11.76-.75-.75.07-.02.32-.03.38,0,.34.19.29.66.38.75h-.01Z"/>
  <path class="st59" d="M71.2,92.74c1.6,0,4.34-.26,5.73.02.43.09.92,1.7,1.77,1.48.99.13.92.4,0,.75-.94-.22-1.92-.76-2.04-.78-1.93-.26-5.55,1.39-5.46-1.47Z"/>
  <path class="st198" d="M80.2,93.49c.1.43-.25,1.24.38,1.5,0,.24-.03.51,0,.75-.59-.65-1.17-.58-1.88-.75.05-.21-.07-.67,0-.75.06-.07,1.1.18.75-1.13l.75.38Z"/>
  <path class="st59" d="M70.45,92.74c0,.55-.21.96-.75,1.12v-1.12h.75Z"/>
  <path class="st238" d="M73.45,96.49c.22-.05,2.7.03,2.83.08.27.1.12.63.18.67.77.5,1.15-1.21,1.59-1.38,1.73-.67,2.53,1.39,2.16,2.88-.12-.09-.65.09-.75,0-.05-.04.16-.65-.24-.76-1.28-.34-2.67.39-3.51.38-.25,0-1.52-.76-2.25-.37v-1.5h0Z"/>
  <path class="st104" d="M46.83,58.61c.29-.18,1.46-.1,1.6.12.23.36-.36,7.27-.47,8.51.07.74-.05,1.51,0,2.25-.22,0-.66-.05-.75,0,0-.42-.27-.77-.38-1.12-.18-.63-.24-1.24-.38-1.88v-4.24c.43-.64.75-1.28,0-1.76l-.38-.75c.27-.48.42-.7.75-1.12h0Z"/>
  <path class="st183" d="M49.07,58.24c-1.38,2.69.78,6.52-1.12,9-.04-.42-.34-.88-.34-1.34.01-1.99.48-4.2.31-6.39-.06-.87-.52-.55-1.1-.9.11-.14.26-.24.38-.38.55.09,1.4-.13,1.88,0h0Z"/>
  <path class="st45" d="M46.45,66.49c-.15-.71-.97-4.19-.75-4.5.06-.08,1.22.18.75-1.5l.75-.37c.03,2.1.12,4.41-.75,6.37Z"/>
  <path class="st57" d="M62.95,61.99v.75c-.72.44-.68,1.14-.75,1.88-.06.61.03,1.26,0,1.88-.61.43-.89.98-1.5,1.5-.19.16-.57.22-.75.38-.19-.42.47-1.56.75-1.88.04-.05.65.18.76-.25.2-.76-.03-2.52,0-3.5.23.02,1.44-.69,1.5-.75h0Z"/>
  <path class="st274" d="M59.95,66.49c.16-.9-.57-2.57.75-2.25-.1.48.14,2.06,0,2.25-.05.07-.53-.05-.75,0Z"/>
</svg>